<svg width="32" height="32" viewBox="0 0 32 32" fill="none" xmlns="http://www.w3.org/2000/svg">
<g id="Icon">
<path id="Icon_2" fill-rule="evenodd" clip-rule="evenodd" d="M16 1.33325C7.89983 1.33325 1.33334 7.89974 1.33334 15.9999C1.33334 24.1001 7.89983 30.6666 16 30.6666C24.1002 30.6666 30.6667 24.1001 30.6667 15.9999C30.6667 7.89974 24.1002 1.33325 16 1.33325ZM22.8409 9.15906C21.2953 7.61354 18.7896 7.61354 17.244 9.15906C16.7233 9.67976 16.7233 10.524 17.244 11.0447C17.7647 11.5654 18.609 11.5654 19.1297 11.0447C19.6338 10.5406 20.4511 10.5406 20.9553 11.0447C21.4594 11.5488 21.4594 12.3661 20.9553 12.8703L17.244 16.5815C16.951 16.8745 16.5533 16.9981 16.1674 16.9492C15.4368 16.8568 14.7696 17.3741 14.6772 18.1047C14.5848 18.8352 15.1021 19.5024 15.8327 19.5948C17.0011 19.7427 18.2291 19.3677 19.1297 18.4671L22.8409 14.7559C24.3864 13.2104 24.3864 10.7046 22.8409 9.15906ZM16.1674 12.405C14.9989 12.2572 13.771 12.6322 12.8704 13.5328L9.15915 17.244C7.61363 18.7895 7.61363 21.2953 9.15915 22.8408C10.7047 24.3863 13.2105 24.3863 14.756 22.8408C15.2767 22.3201 15.2767 21.4759 14.756 20.9552C14.2353 20.4345 13.3911 20.4345 12.8704 20.9552C12.3662 21.4593 11.5489 21.4593 11.0448 20.9552C10.5406 20.451 10.5406 19.6337 11.0448 19.1296L14.756 15.4184C15.049 15.1253 15.4467 15.0018 15.8327 15.0506C16.5632 15.143 17.2304 14.6257 17.3228 13.8952C17.4152 13.1646 16.8979 12.4975 16.1674 12.405Z" fill="white"/>
</g>
</svg>
