<svg width="129" height="32" viewBox="0 0 129 32" fill="none" xmlns="http://www.w3.org/2000/svg">
<g id="Company Logo">
<g id="Logo">
<path d="M53.8493 12.5683H57.0208V22.5518H53.8493V12.5683Z" fill="white"/>
<path d="M57.6831 12.5682H60.7378V13.9332H60.7961C61.5355 12.8607 62.4888 12.2758 63.8703 12.2758C66.0494 12.2758 67.3335 13.8357 67.3335 16.0586V22.5518H64.1621V16.7021C64.1621 15.6491 63.6368 14.9276 62.6056 14.9276C61.555 14.9276 60.8545 15.8051 60.8545 17.0335V22.5518H57.6831V12.5682Z" fill="white"/>
<path d="M57.3374 9.89724C57.3374 8.84422 56.4857 7.99069 55.435 7.99069C54.3844 7.99069 53.5326 8.84422 53.5326 9.89724C53.5326 10.9502 54.3844 11.8037 55.435 11.8037C56.4857 11.8037 57.3374 10.9502 57.3374 9.89724Z" fill="white"/>
<path d="M89.6388 12.4241C89.5483 12.4159 89.4446 12.4122 89.3232 12.4122C88.1169 12.4122 87.2997 12.9387 86.5992 14.1282H86.5409V12.5683H83.5056V22.5517H86.677V18.067C86.677 15.989 87.8253 15.0261 89.6388 15.1941V12.4241Z" fill="white"/>
<path d="M105.202 16.2535C103.938 16.0196 102.809 15.9221 102.809 15.2202C102.809 14.5961 103.412 14.3037 104.19 14.3037C105.066 14.3037 105.669 14.5766 105.786 15.4736H108.705C108.549 13.5042 107.031 12.2757 104.21 12.2757C101.856 12.2757 99.91 13.3677 99.91 15.4736C99.91 17.8134 101.758 18.2814 103.49 18.574C104.813 18.808 106.019 18.9055 106.019 19.8024C106.019 20.4459 105.416 20.7969 104.463 20.7969C103.506 20.7969 102.874 20.3913 102.68 19.5685H99.6579C99.8803 21.6208 101.678 22.8638 104.482 22.8638C107.09 22.8638 109.016 21.7328 109.016 19.549C109.016 16.9945 106.953 16.546 105.202 16.2535Z" fill="white"/>
<path d="M94.5585 14.5376C95.5897 14.5376 96.329 15.2981 96.4458 16.4876H92.5156C92.7295 15.2981 93.3522 14.5376 94.5585 14.5376ZM94.7336 20.5628C93.43 20.5628 92.6907 19.7244 92.496 18.3789H99.6562C99.6756 16.3511 99.092 14.6156 97.905 13.5237C97.049 12.7438 95.9205 12.2758 94.5 12.2758C91.4648 12.2758 89.383 14.5571 89.383 17.5406C89.383 20.5628 91.4065 22.8443 94.6947 22.8443C95.9593 22.8443 96.9711 22.5128 97.8078 21.9278C98.6833 21.3234 99.267 20.4654 99.481 19.5685H96.3874C96.1149 20.1924 95.5703 20.5628 94.7336 20.5628Z" fill="white"/>
<path d="M114.601 20.1976C114.454 20.2034 114.257 20.212 114.076 20.212C113.395 20.212 112.967 20.0169 112.967 19.2369V14.5571H114.601V12.5682H112.967V9.40938H109.873V12.5682H108.9V14.5571H109.873V19.9194C109.873 22.0644 111.196 22.6688 113.045 22.6688C113.75 22.6688 114.283 22.6159 114.601 22.5536V20.1976Z" fill="white"/>
<path d="M72.9972 20.2021C72.8707 20.207 72.7246 20.212 72.5882 20.212C71.9073 20.212 71.4792 20.0169 71.4792 19.2369V14.5571H72.9972V12.5682H71.4792V9.40938H68.3856V12.5682H67.354V14.5571H68.3856V19.9194C68.3856 22.0644 69.7086 22.6688 71.557 22.6688C72.1824 22.6688 72.6721 22.6271 72.9972 22.5742V20.2021Z" fill="white"/>
<path d="M79.9052 16.4876C79.7885 15.2982 79.049 14.5376 78.0178 14.5376C76.8115 14.5376 76.1889 15.2982 75.9749 16.4876H79.9052ZM72.8424 17.5405C72.8424 14.5571 74.9242 12.2758 77.9595 12.2758C79.3798 12.2758 80.5083 12.7438 81.3644 13.5237C82.5513 14.6157 83.1349 16.3511 83.1155 18.379H75.9555C76.15 19.7244 76.8893 20.5629 78.193 20.5629C79.0296 20.5629 79.5744 20.1924 79.8467 19.5685H82.9404C82.7263 20.4654 82.1427 21.3233 81.2671 21.9279C80.4305 22.5128 79.4187 22.8443 78.154 22.8443C74.8658 22.8443 72.8424 20.5629 72.8424 17.5405Z" fill="white"/>
<path d="M48.3416 15.1617C49.5869 15.1617 50.2873 14.4207 50.2873 13.3091C50.2873 12.1978 49.5674 11.5153 48.3416 11.5153H45.9094V15.1617H48.3416ZM42.6986 8.60992H48.206C49.8986 8.60992 51.1439 9.07786 52 9.89686C52.895 10.7352 53.4009 11.9248 53.4009 13.3287C53.4009 16 51.5525 17.8915 48.6923 17.8915H45.9094V22.5518H42.6986V8.60992Z" fill="white"/>
<path d="M26.3725 4C19.7595 4 14.3986 9.37252 14.3986 16C14.3986 21.0838 17.5533 25.4283 22.0075 27.1767C21.9029 26.2273 21.8082 24.7671 22.049 23.7306C22.2666 22.7941 23.4531 17.7659 23.4531 17.7659C23.4531 17.7659 23.0949 17.047 23.0949 15.9842C23.0949 14.3156 24.06 13.0699 25.2616 13.0699C26.2831 13.0699 26.7765 13.8386 26.7765 14.7603C26.7765 15.7899 26.1225 17.3292 25.7849 18.7557C25.5028 19.9501 26.3826 20.9241 27.558 20.9241C29.6862 20.9241 31.3221 18.6753 31.3221 15.4291C31.3221 12.5558 29.2621 10.547 26.3205 10.547C22.9135 10.547 20.9138 13.108 20.9138 15.7546C20.9138 16.786 21.3102 17.892 21.8049 18.4932C21.9028 18.612 21.9171 18.7161 21.8879 18.8374C21.7971 19.2164 21.5951 20.0315 21.5554 20.1983C21.5032 20.4179 21.3819 20.4646 21.1549 20.3587C19.6595 19.6611 18.7245 17.4699 18.7245 15.7099C18.7245 11.9245 21.4688 8.44813 26.6361 8.44813C30.7898 8.44813 34.0178 11.4145 34.0178 15.3788C34.0178 19.5144 31.4158 22.8428 27.8044 22.8428C26.591 22.8428 25.4504 22.2111 25.0599 21.4649C25.0599 21.4649 24.4595 23.756 24.314 24.3175C24.0437 25.3598 23.3139 26.6663 22.8258 27.4634C23.9461 27.811 25.1381 28 26.3725 28C32.9854 28 38.3463 22.6274 38.3463 16C38.3463 9.37252 32.9854 4 26.3725 4Z" fill="white"/>
</g>
</g>
</svg>
