<svg width="24" height="24" viewBox="0 0 24 24" fill="none" xmlns="http://www.w3.org/2000/svg">
<path fill-rule="evenodd" clip-rule="evenodd" d="M17.2803 2.21967L17.1962 2.14705L17.0942 2.0834C16.8119 1.93756 16.4564 1.98299 16.2197 2.21967L16.1471 2.30379C15.9292 2.5974 15.9534 3.01406 16.2197 3.28033L17.939 5H6.75L6.55084 5.0052C4.57236 5.10873 3 6.74574 3 8.75V11.75L3.00685 11.8518C3.05651 12.2178 3.3703 12.5 3.75 12.5C4.16421 12.5 4.5 12.1642 4.5 11.75V8.75L4.50519 8.59595C4.58436 7.42516 5.55914 6.5 6.75 6.5H17.939L16.2197 8.21967L16.1471 8.30379C15.9292 8.5974 15.9534 9.01406 16.2197 9.28033C16.5126 9.57322 16.9874 9.57322 17.2803 9.28033L20.2803 6.28033L20.3437 6.2083L20.4031 6.11905L20.4384 6.04814L20.461 5.98928L20.4803 5.92137L20.4982 5.80142L20.4982 5.69848L20.4876 5.6137L20.4612 5.51134L20.4261 5.42483L20.3823 5.34643L20.3355 5.28305L20.3488 5.29838C20.3404 5.2872 20.3316 5.27627 20.3226 5.2656L20.3224 5.26529L20.322 5.26484C20.3087 5.24922 20.2948 5.23415 20.2803 5.21967L17.2803 2.21967ZM20.4932 11.6482C20.4435 11.2822 20.1297 11 19.75 11C19.3358 11 19 11.3358 19 11.75V14.75L18.9948 14.904C18.9156 16.0748 17.9409 17 16.75 17H5.561L7.28033 15.2803L7.35295 15.1962C7.5708 14.9026 7.5466 14.4859 7.28033 14.2197C6.98744 13.9268 6.51256 13.9268 6.21967 14.2197L3.21967 17.2197C3.19507 17.2443 3.17217 17.2706 3.14705 17.3038L3.09686 17.381L3.0616 17.4519L3.03898 17.5107L3.01973 17.5786L3.00317 17.6805L3 17.75L3.004 17.8279L3.01242 17.8863L3.03881 17.9887L3.07393 18.0752L3.1285 18.17L3.19844 18.2582L6.21967 21.2803L6.30379 21.3529C6.5974 21.5708 7.01406 21.5466 7.28033 21.2803L7.35295 21.1962C7.5708 20.9026 7.5466 20.4859 7.28033 20.2197L5.561 18.5H16.75L16.9492 18.4948C18.9276 18.3913 20.5 16.7543 20.5 14.75V11.75L20.4932 11.6482Z" fill="white"/>
</svg>
