<svg width="24" height="24" viewBox="0 0 24 24" fill="none" xmlns="http://www.w3.org/2000/svg">
<path fill-rule="evenodd" clip-rule="evenodd" d="M8.75 4H6.75C5.7835 4 5 4.7835 5 5.75V17.75C5 18.7165 5.7835 19.5 6.75 19.5H8.75C9.7165 19.5 10.5 18.7165 10.5 17.75V5.75C10.5 4.7835 9.7165 4 8.75 4ZM6.75 5.5H8.75C8.88807 5.5 9 5.61193 9 5.75V17.75C9 17.8881 8.88807 18 8.75 18H6.75C6.61193 18 6.5 17.8881 6.5 17.75V5.75C6.5 5.61193 6.61193 5.5 6.75 5.5ZM16.75 4H14.75C13.7835 4 13 4.7835 13 5.75V17.75C13 18.7165 13.7835 19.5 14.75 19.5H16.75C17.7165 19.5 18.5 18.7165 18.5 17.75V5.75C18.5 4.7835 17.7165 4 16.75 4ZM14.75 5.5H16.75C16.8881 5.5 17 5.61193 17 5.75V17.75C17 17.8881 16.8881 18 16.75 18H14.75C14.6119 18 14.5 17.8881 14.5 17.75V5.75C14.5 5.61193 14.6119 5.5 14.75 5.5Z" fill="white"/>
</svg>
