<svg width="372" height="28" viewBox="0 0 372 28" fill="none" xmlns="http://www.w3.org/2000/svg">
<g clip-path="url(#clip0_3765_3883)">
<path d="M339.352 14.2734C339.352 16.2474 339.039 17.7214 338.414 18.6953C337.794 19.6693 336.844 20.1562 335.562 20.1562C334.333 20.1562 333.398 19.6589 332.758 18.6641C332.117 17.6641 331.797 16.2005 331.797 14.2734C331.797 12.2839 332.107 10.8073 332.727 9.84375C333.346 8.88021 334.292 8.39844 335.562 8.39844C336.802 8.39844 337.742 8.90104 338.383 9.90625C339.029 10.9115 339.352 12.3672 339.352 14.2734ZM333.109 14.2734C333.109 15.9349 333.305 17.1458 333.695 17.9062C334.086 18.6615 334.708 19.0391 335.562 19.0391C336.427 19.0391 337.052 18.6562 337.438 17.8906C337.828 17.1198 338.023 15.9141 338.023 14.2734C338.023 12.6328 337.828 11.4323 337.438 10.6719C337.052 9.90625 336.427 9.52344 335.562 9.52344C334.708 9.52344 334.086 9.90104 333.695 10.6562C333.305 11.4062 333.109 12.612 333.109 14.2734ZM348.016 11.2656C348.016 11.9948 347.81 12.5911 347.398 13.0547C346.992 13.5182 346.414 13.8281 345.664 13.9844V14.0469C346.581 14.1615 347.26 14.4531 347.703 14.9219C348.146 15.3906 348.367 16.0052 348.367 16.7656C348.367 17.8542 347.99 18.6927 347.234 19.2812C346.479 19.8646 345.406 20.1562 344.016 20.1562C343.411 20.1562 342.857 20.1094 342.352 20.0156C341.852 19.9271 341.365 19.7682 340.891 19.5391V18.3047C341.385 18.5495 341.911 18.737 342.469 18.8672C343.031 18.9922 343.562 19.0547 344.062 19.0547C346.036 19.0547 347.023 18.2812 347.023 16.7344C347.023 15.349 345.935 14.6562 343.758 14.6562H342.633V13.5391H343.773C344.664 13.5391 345.37 13.3438 345.891 12.9531C346.411 12.5573 346.672 12.0104 346.672 11.3125C346.672 10.7552 346.479 10.3177 346.094 10C345.714 9.68229 345.195 9.52344 344.539 9.52344C344.039 9.52344 343.568 9.59115 343.125 9.72656C342.682 9.86198 342.177 10.112 341.609 10.4766L340.953 9.60156C341.422 9.23177 341.961 8.94271 342.57 8.73438C343.185 8.52083 343.831 8.41406 344.508 8.41406C345.617 8.41406 346.479 8.66927 347.094 9.17969C347.708 9.6849 348.016 10.3802 348.016 11.2656ZM350.5 19.1719C350.5 18.8229 350.578 18.5599 350.734 18.3828C350.896 18.2005 351.125 18.1094 351.422 18.1094C351.724 18.1094 351.958 18.2005 352.125 18.3828C352.297 18.5599 352.383 18.8229 352.383 19.1719C352.383 19.5104 352.297 19.7708 352.125 19.9531C351.953 20.1354 351.719 20.2266 351.422 20.2266C351.156 20.2266 350.935 20.1458 350.758 19.9844C350.586 19.8177 350.5 19.5469 350.5 19.1719ZM350.5 12.2734C350.5 11.5703 350.807 11.2188 351.422 11.2188C352.062 11.2188 352.383 11.5703 352.383 12.2734C352.383 12.612 352.297 12.8724 352.125 13.0547C351.953 13.237 351.719 13.3281 351.422 13.3281C351.156 13.3281 350.935 13.2474 350.758 13.0859C350.586 12.9193 350.5 12.6484 350.5 12.2734ZM361.867 20H354.359V18.8828L357.367 15.8594C358.284 14.9323 358.888 14.2708 359.18 13.875C359.471 13.4792 359.69 13.0938 359.836 12.7188C359.982 12.3438 360.055 11.9401 360.055 11.5078C360.055 10.8984 359.87 10.4167 359.5 10.0625C359.13 9.70312 358.617 9.52344 357.961 9.52344C357.487 9.52344 357.036 9.60156 356.609 9.75781C356.188 9.91406 355.716 10.1979 355.195 10.6094L354.508 9.72656C355.56 8.85156 356.706 8.41406 357.945 8.41406C359.018 8.41406 359.859 8.6901 360.469 9.24219C361.078 9.78906 361.383 10.526 361.383 11.4531C361.383 12.1771 361.18 12.8932 360.773 13.6016C360.367 14.3099 359.607 15.2057 358.492 16.2891L355.992 18.7344V18.7969H361.867V20ZM368.32 20H367.055V11.8594C367.055 11.1823 367.076 10.5417 367.117 9.9375C367.008 10.0469 366.885 10.1615 366.75 10.2812C366.615 10.401 365.995 10.9089 364.891 11.8047L364.203 10.9141L367.227 8.57812H368.32V20Z" fill="white"/>
<rect y="10" width="315" height="8" rx="4" fill="white"/>
<rect y="10" width="175.86" height="8" rx="4" fill="#FD7E14"/>
</g>
<defs>
<clipPath id="clip0_3765_3883">
<rect width="372" height="28" fill="white"/>
</clipPath>
</defs>
</svg>
