<svg width="24" height="24" viewBox="0 0 24 24" fill="none" xmlns="http://www.w3.org/2000/svg">
<path fill-rule="evenodd" clip-rule="evenodd" d="M9.34612 3.89018C9.19002 4.53211 8.45856 4.83525 7.89261 4.49115C5.67773 3.14271 3.14338 5.67768 4.49247 7.8922C4.65453 8.158 4.67988 8.48493 4.56083 8.77228C4.44178 9.05964 4.19265 9.27285 3.89036 9.34609C1.36991 9.95754 1.36991 13.5425 3.89016 14.1539C4.19177 14.2272 4.44059 14.4404 4.5595 14.7276C4.67841 15.0147 4.65313 15.3414 4.49144 15.6069C3.14269 17.8222 5.67765 20.3566 7.89217 19.0075C8.15798 18.8454 8.48491 18.8201 8.77226 18.9391C9.05961 19.0582 9.27282 19.3073 9.34607 19.6096C9.95752 22.1301 13.5424 22.1301 14.1538 19.6098C14.2272 19.3082 14.4404 19.0594 14.7275 18.9405C15.0147 18.8216 15.3414 18.8468 15.6068 19.0085C17.8222 20.3573 20.3566 17.8223 19.0075 15.6078C18.8454 15.342 18.8201 15.0151 18.9391 14.7277C19.0582 14.4404 19.3073 14.2272 19.6096 14.1539C22.13 13.5425 22.13 9.95754 19.6098 9.34614C19.3082 9.27279 19.0594 9.05962 18.9404 8.77245C18.8215 8.48528 18.8468 8.1586 19.0085 7.89315C20.3573 5.67775 17.8223 3.1434 15.6078 4.4925C15.342 4.65456 15.015 4.67991 14.7277 4.56086C14.4403 4.44181 14.2271 4.19268 14.1538 3.89018C13.5424 1.36994 9.95752 1.36994 9.34612 3.89018ZM12.6961 4.24361C12.8821 5.01144 13.4237 5.64424 14.1536 5.94663C14.8226 6.22383 15.5762 6.19283 16.2167 5.86894L16.3884 5.77336C17.2289 5.26134 18.1873 6.17125 17.7785 7.01911L17.7274 7.11299C17.3168 7.78711 17.2525 8.61688 17.5546 9.34631C17.8566 10.0757 18.4886 10.6172 19.2558 10.8038C20.2479 11.0445 20.2479 12.4555 19.2562 12.6961C18.4885 12.8821 17.8557 13.4237 17.5533 14.1536C17.2761 14.8226 17.3071 15.5762 17.631 16.2167L17.7266 16.3884C18.2386 17.2289 17.3287 18.1873 16.4809 17.7785L16.387 17.7274C15.7129 17.3168 14.8831 17.2525 14.1537 17.5546C13.4242 17.8566 12.8828 18.4886 12.6962 19.2558C12.4555 20.2479 11.0444 20.2479 10.8038 19.2562C10.6178 18.4886 10.0763 17.8558 9.34639 17.5534C8.67733 17.2762 7.92379 17.3072 7.28327 17.6311L7.11154 17.7266C6.27107 18.2387 5.31263 17.3287 5.72146 16.4809L5.77259 16.387C6.1832 15.7129 6.24743 14.8831 5.94539 14.1537C5.64335 13.4243 5.01132 12.8828 4.2442 12.6962C3.25203 12.4555 3.25203 11.0445 4.24379 10.8039C5.01142 10.6179 5.64422 10.0763 5.94661 9.34641C6.2238 8.67735 6.1928 7.92382 5.86892 7.2833L5.77333 7.11156C5.26132 6.2711 6.17123 5.31266 7.01909 5.72149L7.11296 5.77262C8.54651 6.64421 10.4077 5.87289 10.8037 4.24421C11.0344 3.2934 12.34 3.25378 12.6601 4.12501L12.6961 4.24361ZM11.75 8C9.67891 8 7.99997 9.67893 7.99997 11.75C7.99997 13.8211 9.67891 15.5 11.75 15.5C13.821 15.5 15.5 13.8211 15.5 11.75C15.5 9.67893 13.821 8 11.75 8ZM11.75 9.5C12.9926 9.5 14 10.5074 14 11.75C14 12.9926 12.9926 14 11.75 14C10.5073 14 9.49997 12.9926 9.49997 11.75C9.49997 10.5074 10.5073 9.5 11.75 9.5Z" fill="white"/>
</svg>
