<svg width="24" height="24" viewBox="0 0 24 24" fill="none" xmlns="http://www.w3.org/2000/svg">
<path fill-rule="evenodd" clip-rule="evenodd" d="M8.65386 3.71753C9.03196 3.12292 9.77156 2.85314 10.4514 3.07977C11.1313 3.30639 11.5611 3.96597 11.5068 4.66852L11.5 4.71804V18.649L11.5068 18.6996C11.5575 19.3553 11.1864 19.9736 10.584 20.2373L10.4514 20.2883C9.77156 20.5149 9.03196 20.2452 8.65386 19.6505L8.629 19.608L5.383 15.434H3.75C2.83183 15.434 2.07881 14.7269 2.0058 13.8276L2 13.684V9.68404C2 8.76586 2.70711 8.01284 3.60647 7.93984L3.75 7.93404H5.382L8.629 3.75904L8.65386 3.71753ZM9.97708 4.50279C9.96149 4.49759 9.94492 4.50049 9.93226 4.5095L9.91682 4.52734L9.84201 4.64449L6.34201 9.14449C6.2236 9.29673 6.05215 9.39631 5.86435 9.42528L5.75 9.43404H3.75C3.63165 9.43404 3.53251 9.51627 3.5066 9.62671L3.5 9.68404V13.684C3.5 13.8024 3.58223 13.9015 3.69268 13.9274L3.75 13.934L5.79089 13.9351L5.85177 13.9409L5.94938 13.9608L6.04193 13.993L6.09287 14.0168L6.12854 14.0364L6.2083 14.0903L6.28033 14.1537L6.34201 14.2236L9.84201 18.7236L9.91682 18.8407C9.9281 18.8627 9.95369 18.8731 9.97708 18.8653C9.99268 18.8601 10.0042 18.8478 10.0089 18.833L10.0106 18.8095L10 18.684V4.68404L10.0106 4.55859C10.0147 4.53428 10.0005 4.51059 9.97708 4.50279ZM16.8667 4.21263C17.127 3.89047 17.5992 3.84035 17.9214 4.1007C20.212 5.95177 21.5431 8.73901 21.5431 11.684C21.5431 14.6291 20.212 17.4163 17.9214 19.2674C17.5992 19.5277 17.127 19.4776 16.8667 19.1554C16.6063 18.8333 16.6564 18.3611 16.9786 18.1007C18.9168 16.5344 20.0431 14.176 20.0431 11.684C20.0431 9.19209 18.9168 6.83366 16.9786 5.26737C16.6564 5.00702 16.6063 4.5348 16.8667 4.21263ZM14.15 7.23404C14.3985 6.90267 14.8686 6.83551 15.2 7.08404C16.6479 8.16995 17.5 9.87418 17.5 11.684C17.5 13.4939 16.6479 15.1981 15.2 16.284C14.8686 16.5326 14.3985 16.4654 14.15 16.134C13.9015 15.8027 13.9686 15.3326 14.3 15.084C15.3702 14.2814 16 13.0218 16 11.684C16 10.3463 15.3702 9.08667 14.3 8.28404C13.9686 8.03551 13.9015 7.56541 14.15 7.23404Z" fill="white"/>
</svg>
