<svg width="24" height="24" viewBox="0 0 24 24" fill="none" xmlns="http://www.w3.org/2000/svg">
<path fill-rule="evenodd" clip-rule="evenodd" d="M21.2803 6.21967C21.5732 6.51256 21.5732 6.98744 21.2803 7.28033L13.2803 15.2803C12.9874 15.5732 12.5126 15.5732 12.2197 15.2803L8.75 11.8107L3.28033 17.2803C2.98744 17.5732 2.51256 17.5732 2.21967 17.2803C1.92678 16.9874 1.92678 16.5126 2.21967 16.2197L8.21967 10.2197C8.51256 9.92678 8.98744 9.92678 9.28033 10.2197L12.75 13.6893L20.2197 6.21967C20.5126 5.92678 20.9874 5.92678 21.2803 6.21967Z" fill="#FD7E14"/>
<path fill-rule="evenodd" clip-rule="evenodd" d="M13 6.75C13 6.33579 13.3358 6 13.75 6H20.75C21.1642 6 21.5 6.33579 21.5 6.75V13.75C21.5 14.1642 21.1642 14.5 20.75 14.5C20.3358 14.5 20 14.1642 20 13.75V7.5H13.75C13.3358 7.5 13 7.16421 13 6.75Z" fill="#FD7E14"/>
</svg>
