<svg width="25" height="24" viewBox="0 0 25 24" fill="none" xmlns="http://www.w3.org/2000/svg">
<g id="Social platforms logo">
<path id="Logo" d="M22.1841 18.7033C21.8212 19.5418 21.3916 20.3136 20.8938 21.0232C20.2153 21.9906 19.6598 22.6602 19.2316 23.032C18.568 23.6424 17.8569 23.955 17.0954 23.9728C16.5488 23.9728 15.8895 23.8172 15.1221 23.5017C14.3522 23.1876 13.6447 23.032 12.9978 23.032C12.3193 23.032 11.5916 23.1876 10.8132 23.5017C10.0337 23.8172 9.40573 23.9816 8.9256 23.9979C8.1954 24.0291 7.46757 23.7076 6.74108 23.032C6.27739 22.6276 5.69741 21.9343 5.00262 20.9521C4.25716 19.9033 3.64429 18.687 3.16416 17.3004C2.64995 15.8026 2.39218 14.3523 2.39218 12.9482C2.39218 11.3398 2.73973 9.95259 3.43585 8.79011C3.98294 7.85636 4.71077 7.11979 5.62171 6.57906C6.53264 6.03834 7.51691 5.76279 8.57687 5.74516C9.15685 5.74516 9.91742 5.92456 10.8626 6.27715C11.8051 6.63091 12.4102 6.81032 12.6756 6.81032C12.8739 6.81032 13.5462 6.60054 14.6859 6.18233C15.7636 5.79449 16.6732 5.63391 17.4184 5.69716C19.4376 5.86012 20.9545 6.6561 21.9634 8.09013C20.1575 9.18432 19.2642 10.7169 19.282 12.6829C19.2983 14.2142 19.8538 15.4886 20.9457 16.5004C21.4405 16.97 21.993 17.333 22.6078 17.5907C22.4745 17.9774 22.3338 18.3477 22.1841 18.7033ZM17.5532 0.480137C17.5532 1.68041 17.1147 2.8011 16.2406 3.8384C15.1858 5.07155 13.91 5.78412 12.5265 5.67168C12.5089 5.52769 12.4987 5.37614 12.4987 5.21688C12.4987 4.06462 13.0003 2.83147 13.8911 1.82321C14.3358 1.3127 14.9014 0.888228 15.5873 0.549615C16.2717 0.216055 16.9191 0.031589 17.528 0C17.5458 0.160458 17.5532 0.320926 17.5532 0.480121V0.480137Z" fill="white"/>
</g>
</svg>
