<svg width="25" height="24" viewBox="0 0 25 24" fill="none" xmlns="http://www.w3.org/2000/svg">
<g id="Logo">
<path id="Vector" d="M24.2628 12.2743C24.2628 11.4586 24.1967 10.6384 24.0556 9.83594H12.7368V14.4569H19.2185C18.9495 15.9473 18.0853 17.2657 16.8198 18.1034V21.1018H20.6868C22.9576 19.0118 24.2628 15.9252 24.2628 12.2743Z" fill="white"/>
<path id="Vector_2" d="M12.7373 24.0013C15.9737 24.0013 18.7031 22.9387 20.6917 21.1044L16.8247 18.106C15.7488 18.838 14.3599 19.2525 12.7417 19.2525C9.61105 19.2525 6.95663 17.1404 6.00421 14.3008H2.01376V17.3917C4.05088 21.4439 8.20006 24.0013 12.7373 24.0013Z" fill="white"/>
<path id="Vector_3" d="M5.99974 14.2987C5.49707 12.8084 5.49707 11.1946 5.99974 9.70422V6.61328H2.0137C0.311697 10.0041 0.311697 13.9989 2.0137 17.3897L5.99974 14.2987Z" fill="white"/>
<path id="Vector_4" d="M12.7373 4.74966C14.4481 4.7232 16.1016 5.36697 17.3407 6.54867L20.7667 3.12262C18.5973 1.0855 15.718 -0.034466 12.7373 0.000808666C8.2001 0.000808666 4.05092 2.55822 2.01381 6.61481L5.99985 9.70575C6.94785 6.86173 9.60668 4.74966 12.7373 4.74966Z" fill="white"/>
</g>
</svg>
