<svg width="33" height="32" viewBox="0 0 33 32" fill="none" xmlns="http://www.w3.org/2000/svg">
<g id="Icon">
<g id="Icon_2">
<path d="M3.3335 12.2667C3.3335 10.7732 3.3335 10.0265 3.62415 9.45603C3.87981 8.95426 4.28776 8.54631 4.78952 8.29065C5.35995 8 6.10669 8 7.60016 8H17.7335C19.227 8 19.9737 8 20.5441 8.29065C21.0459 8.54631 21.4539 8.95426 21.7095 9.45603C22.0002 10.0265 22.0002 10.7732 22.0002 12.2667V19.7333C22.0002 21.2268 22.0002 21.9735 21.7095 22.544C21.4539 23.0457 21.0459 23.4537 20.5441 23.7094C19.9737 24 19.227 24 17.7335 24H7.60016C6.10669 24 5.35995 24 4.78952 23.7094C4.28776 23.4537 3.87981 23.0457 3.62415 22.544C3.3335 21.9735 3.3335 21.2268 3.3335 19.7333V12.2667Z" fill="#437EF7"/>
<path d="M28.6668 15.253V16.747C28.6668 18.7456 28.6668 19.7449 28.2484 20.4009C27.8822 20.9751 27.3102 21.3874 26.6496 21.5532C25.9335 21.7331 25.0431 21.4576 23.3335 20.8888V11.1112C25.0431 10.5424 25.9334 10.2669 26.6496 10.4468C27.3102 10.6126 27.8822 11.0249 28.2484 11.5991C28.6668 12.2551 28.6668 13.2544 28.6668 15.253Z" fill="#437EF7"/>
</g>
</g>
</svg>
