<svg width="32" height="32" viewBox="0 0 32 32" fill="none" xmlns="http://www.w3.org/2000/svg">
<g id="Icon">
<g id="Icon_2">
<path d="M4.00008 4C3.2637 4 2.66675 4.59695 2.66675 5.33333C2.66675 6.06971 3.2637 6.66667 4.00008 6.66667H5.49939L7.16988 19.1953C7.43485 21.1825 9.12998 22.6667 11.1348 22.6667H22.7281C24.5566 22.6667 26.1522 21.4268 26.6041 19.6551L28.444 12.4403C29.0889 9.91116 27.1781 7.45185 24.568 7.45185H8.29435L8.14267 6.31423C7.96602 4.98941 6.83593 4 5.49939 4H4.00008Z" fill="#437EF7"/>
<path d="M6.66675 26.6667C6.66675 25.1939 7.86066 24 9.33342 24C10.8062 24 12.0001 25.1939 12.0001 26.6667C12.0001 28.1394 10.8062 29.3333 9.33342 29.3333C7.86066 29.3333 6.66675 28.1394 6.66675 26.6667Z" fill="#437EF7"/>
<path d="M24.0001 24C22.5273 24 21.3334 25.1939 21.3334 26.6667C21.3334 28.1394 22.5273 29.3333 24.0001 29.3333C25.4728 29.3333 26.6667 28.1394 26.6667 26.6667C26.6667 25.1939 25.4728 24 24.0001 24Z" fill="#437EF7"/>
</g>
</g>
</svg>
