<svg width="33" height="32" viewBox="0 0 33 32" fill="none" xmlns="http://www.w3.org/2000/svg">
<g id="Icon">
<g id="Icon_2">
<path d="M23.3904 14.2763L15.1874 22.4793C13.9321 20.2473 12.086 18.4013 9.85402 17.146L20.1581 6.84194C20.6861 6.31393 20.9501 6.04992 21.2545 5.951C21.5223 5.86399 21.8108 5.86399 22.0786 5.951C22.383 6.04992 22.647 6.31393 23.1751 6.84195L25.4914 9.1583C26.0194 9.68632 26.2834 9.95033 26.3824 10.2548C26.4694 10.5226 26.4694 10.811 26.3824 11.0788C26.2834 11.3833 26.0194 11.6473 25.4914 12.1753L25.2761 12.3906L27.4713 14.5859C28.2524 15.367 28.2524 16.6333 27.4713 17.4143L23.9427 20.9429C23.422 21.4636 22.5778 21.4636 22.0571 20.9429C21.5364 20.4222 21.5364 19.578 22.0571 19.0573L25.1143 16.0001L23.3904 14.2763Z" fill="#437EF7"/>
<path d="M8.01472 19.6223L7.01581 22.6191C6.58154 23.9219 6.36441 24.5733 6.51888 25.0064C6.65331 25.3834 6.94995 25.6801 7.32692 25.8145C7.76009 25.9689 8.4115 25.7518 9.71427 25.3176L12.711 24.3186C12.862 24.2683 12.9813 24.2285 13.081 24.1933C11.997 22.067 10.2663 20.3364 8.1401 19.2524C8.10481 19.3521 8.06505 19.4714 8.01472 19.6223Z" fill="#437EF7"/>
</g>
</g>
</svg>
