<svg width="24" height="24" viewBox="0 0 24 24" fill="none" xmlns="http://www.w3.org/2000/svg">
<g id="Social platforms logo">
<path id="Logo" d="M21.6841 18.7033C21.3212 19.5418 20.8915 20.3136 20.3938 21.0232C19.7153 21.9906 19.1597 22.6602 18.7316 23.032C18.0679 23.6424 17.3568 23.955 16.5954 23.9728C16.0487 23.9728 15.3895 23.8172 14.6221 23.5017C13.8522 23.1876 13.1447 23.032 12.4977 23.032C11.8192 23.032 11.0916 23.1876 10.3132 23.5017C9.53368 23.8172 8.9057 23.9816 8.42557 23.9979C7.69537 24.0291 6.96754 23.7076 6.24105 23.032C5.77736 22.6276 5.19738 21.9343 4.50259 20.9521C3.75713 19.9033 3.14426 18.687 2.66413 17.3004C2.14992 15.8026 1.89215 14.3523 1.89215 12.9482C1.89215 11.3398 2.2397 9.95259 2.93582 8.79011C3.48291 7.85636 4.21074 7.11979 5.12168 6.57906C6.03261 6.03834 7.01688 5.76279 8.07684 5.74516C8.65682 5.74516 9.41739 5.92456 10.3625 6.27715C11.305 6.63091 11.9102 6.81032 12.1755 6.81032C12.3739 6.81032 13.0462 6.60054 14.1858 6.18233C15.2636 5.79449 16.1732 5.63391 16.9183 5.69716C18.9375 5.86012 20.4545 6.6561 21.4634 8.09013C19.6575 9.18432 18.7642 10.7169 18.782 12.6829C18.7983 14.2142 19.3538 15.4886 20.4456 16.5004C20.9404 16.97 21.493 17.333 22.1078 17.5907C21.9745 17.9774 21.8337 18.3477 21.6841 18.7033ZM17.0531 0.480137C17.0531 1.68041 16.6146 2.8011 15.7406 3.8384C14.6858 5.07155 13.41 5.78412 12.0265 5.67168C12.0089 5.52769 11.9986 5.37614 11.9986 5.21688C11.9986 4.06462 12.5003 2.83147 13.391 1.82321C13.8358 1.3127 14.4014 0.888228 15.0873 0.549615C15.7717 0.216055 16.4191 0.031589 17.028 0C17.0457 0.160458 17.0531 0.320926 17.0531 0.480121V0.480137Z" fill="#272D37"/>
</g>
</svg>
