<svg width="32" height="32" viewBox="0 0 32 32" fill="none" xmlns="http://www.w3.org/2000/svg">
<g id="Icon">
<path id="Icon_2" d="M10.2768 8.3913C10.5267 7.86912 10.6667 7.28428 10.6667 6.66675C10.6667 4.45761 8.8758 2.66675 6.66666 2.66675C4.45752 2.66675 2.66666 4.45761 2.66666 6.66675C2.66666 8.87589 4.45752 10.6667 6.66666 10.6667C7.28419 10.6667 7.86903 10.5268 8.39121 10.2769L10.4379 12.3236C9.73983 13.3775 9.33332 14.6413 9.33332 16.0001C9.33332 17.3589 9.73983 18.6227 10.4379 19.6766L8.69071 21.4237C8.47041 21.3648 8.23887 21.3334 7.99999 21.3334C6.52723 21.3334 5.33332 22.5273 5.33332 24.0001C5.33332 25.4728 6.52723 26.6667 7.99999 26.6667C9.47275 26.6667 10.6667 25.4728 10.6667 24.0001C10.6667 23.7612 10.6352 23.5297 10.5763 23.3094L12.3235 21.5622C13.3774 22.2602 14.6412 22.6667 16 22.6667C17.3588 22.6667 18.6226 22.2602 19.6765 21.5622L21.7232 23.6089C21.4733 24.131 21.3333 24.7159 21.3333 25.3334C21.3333 27.5426 23.1242 29.3334 25.3333 29.3334C27.5425 29.3334 29.3333 27.5426 29.3333 25.3334C29.3333 23.1243 27.5425 21.3334 25.3333 21.3334C24.7158 21.3334 24.1309 21.4734 23.6088 21.7232L21.5621 19.6766C22.2602 18.6227 22.6667 17.3589 22.6667 16.0001C22.6667 14.6413 22.2602 13.3775 21.5621 12.3236L23.3093 10.5764C23.5296 10.6353 23.7611 10.6667 24 10.6667C25.4727 10.6667 26.6667 9.47284 26.6667 8.00008C26.6667 6.52732 25.4728 5.33341 24 5.33341C22.5272 5.33341 21.3333 6.52732 21.3333 8.00008C21.3333 8.23896 21.3647 8.4705 21.4236 8.69081L19.6765 10.4379C18.6226 9.73992 17.3588 9.33342 16 9.33342C14.6412 9.33342 13.3774 9.73992 12.3235 10.4379L10.2768 8.3913Z" fill="white"/>
</g>
</svg>
