<svg width="32" height="32" viewBox="0 0 32 32" fill="none" xmlns="http://www.w3.org/2000/svg">
<g id="Icon">
<g id="Icon_2">
<path d="M10.6667 4C6.98477 4 4 6.98477 4 10.6667C4 14.3486 6.98477 17.3333 10.6667 17.3333C14.3486 17.3333 17.3333 14.3486 17.3333 10.6667C17.3333 6.98477 14.3486 4 10.6667 4Z" fill="white"/>
<path d="M25.816 9.76931C25.3115 9.51225 24.7872 9.41716 24.26 9.37409C23.7606 9.33329 23.1543 9.33331 22.4514 9.33333L20 9.33334V10.6667C20 15.8213 15.8213 20 10.6667 20H9.33334L9.33333 22.4514C9.33331 23.1543 9.33329 23.7606 9.37409 24.26C9.41716 24.7872 9.51225 25.3115 9.76931 25.816C10.1528 26.5686 10.7647 27.1805 11.5174 27.564C12.0219 27.8211 12.5462 27.9162 13.0733 27.9592C13.5727 28 14.179 28 14.8818 28H22.4514C23.1542 28 23.7606 28 24.26 27.9592C24.7872 27.9162 25.3115 27.8211 25.816 27.564C26.5686 27.1805 27.1805 26.5686 27.564 25.816C27.8211 25.3115 27.9162 24.7872 27.9592 24.26C28 23.7606 28 23.1543 28 22.4515V14.882C28 14.1792 28 13.5727 27.9592 13.0733C27.9162 12.5462 27.8211 12.0219 27.564 11.5174C27.1805 10.7647 26.5686 10.1528 25.816 9.76931Z" fill="white"/>
</g>
</g>
</svg>
