<svg width="32" height="32" viewBox="0 0 32 32" fill="none" xmlns="http://www.w3.org/2000/svg">
<g id="Icon">
<path id="Icon_2" d="M17.3333 11.8319C19.6336 11.2398 21.3333 9.1517 21.3333 6.66658C21.3333 3.72107 18.9455 1.33325 16 1.33325C13.0545 1.33325 10.6667 3.72107 10.6667 6.66658C10.6667 9.1517 12.3664 11.2398 14.6667 11.8319V14.6666H10.6667C8.45752 14.6666 6.66666 16.4574 6.66666 18.6666V20.1679C4.36635 20.76 2.66666 22.8481 2.66666 25.3333C2.66666 28.2788 5.05447 30.6666 7.99999 30.6666C10.9455 30.6666 13.3333 28.2788 13.3333 25.3333C13.3333 22.8481 11.6336 20.76 9.33332 20.1679V18.6666C9.33332 17.9302 9.93028 17.3333 10.6667 17.3333H21.3333C22.0697 17.3333 22.6667 17.9302 22.6667 18.6666V20.1679C20.3664 20.76 18.6667 22.8481 18.6667 25.3333C18.6667 28.2788 21.0545 30.6666 24 30.6666C26.9455 30.6666 29.3333 28.2788 29.3333 25.3333C29.3333 22.8481 27.6336 20.76 25.3333 20.1679V18.6666C25.3333 16.4574 23.5425 14.6666 21.3333 14.6666H17.3333V11.8319Z" fill="white"/>
</g>
</svg>
