<svg width="32" height="32" viewBox="0 0 32 32" fill="none" xmlns="http://www.w3.org/2000/svg">
<g id="Icon">
<path id="Icon_2" d="M24 11.9999C26.9455 11.9999 29.3333 9.6121 29.3333 6.66658C29.3333 3.72107 26.9455 1.33325 24 1.33325C21.0545 1.33325 18.6667 3.72107 18.6667 6.66658C18.6667 7.16954 18.7363 7.65624 18.8664 8.11757L11.7887 12.2462C10.8222 11.2708 9.48166 10.6666 7.99999 10.6666C5.05447 10.6666 2.66666 13.0544 2.66666 15.9999C2.66666 18.9454 5.05447 21.3333 7.99999 21.3333C9.48166 21.3333 10.8222 20.7291 11.7887 19.7536L18.8664 23.8823C18.7363 24.3436 18.6667 24.8303 18.6667 25.3333C18.6667 28.2788 21.0545 30.6666 24 30.6666C26.9455 30.6666 29.3333 28.2788 29.3333 25.3333C29.3333 22.3877 26.9455 19.9999 24 19.9999C22.5183 19.9999 21.1778 20.6041 20.2113 21.5796L13.1336 17.4509C13.2637 16.9896 13.3333 16.5029 13.3333 15.9999C13.3333 15.497 13.2637 15.0103 13.1336 14.5489L20.2113 10.4203C21.1778 11.3957 22.5183 11.9999 24 11.9999Z" fill="white"/>
</g>
</svg>
