<svg width="129" height="32" viewBox="0 0 129 32" fill="none" xmlns="http://www.w3.org/2000/svg">
<g id="Company Logo">
<g id="Logo">
<path d="M80.82 8.70399H76.596C76.5 8.70399 76.404 8.80001 76.404 8.89601V11.344C76.404 11.44 76.5 11.536 76.596 11.536H80.82C80.916 11.536 81.012 11.44 81.012 11.344V8.89601C81.06 8.80001 80.964 8.70399 80.82 8.70399ZM80.772 12.352H72.612C72.516 12.352 72.372 12.448 72.324 12.544L71.268 16.528L71.22 16.72L69.972 12.448C69.924 12.352 69.828 12.256 69.684 12.256H66.516C66.42 12.256 66.276 12.352 66.228 12.448L65.028 16.432L64.98 16.624L64.932 16.528L64.452 14.56L63.924 12.592C63.876 12.496 63.78 12.4 63.636 12.4H57.252V8.94399C57.252 8.84799 57.108 8.704 56.964 8.752L52.932 10C52.788 10.048 52.74 10.096 52.74 10.192V12.352H51.684C51.588 12.352 51.492 12.448 51.492 12.544V15.616C51.492 15.712 51.588 15.808 51.684 15.808H52.74V19.552C52.74 22.192 54.18 23.44 56.82 23.44C57.924 23.44 58.98 23.2 59.7 22.816V19.648C59.7 19.504 59.556 19.456 59.46 19.456C59.028 19.648 58.692 19.696 58.308 19.696C57.588 19.696 57.204 19.408 57.204 18.592V15.856H59.508C59.604 15.856 59.7 15.76 59.7 15.664V13.072L62.724 23.104C62.772 23.2 62.868 23.296 63.012 23.296H66.372C66.468 23.296 66.612 23.2 66.66 23.104L68.1 18.64L68.82 20.944L69.492 23.056C69.54 23.152 69.636 23.248 69.78 23.248H73.14C73.236 23.248 73.38 23.152 73.428 23.056L76.5 12.976V23.056C76.5 23.152 76.596 23.248 76.692 23.248H80.772C80.868 23.248 80.964 23.152 80.964 23.056V12.592C80.964 12.448 80.868 12.352 80.772 12.352ZM86.148 8.70399H82.068C81.972 8.70399 81.876 8.80001 81.876 8.89601V23.056C81.876 23.152 81.972 23.248 82.068 23.248H86.148C86.244 23.248 86.34 23.152 86.34 23.056V8.89601C86.34 8.80001 86.244 8.70399 86.148 8.70399ZM91.572 8.70399H87.348C87.252 8.70399 87.156 8.80001 87.156 8.89601V11.344C87.156 11.44 87.252 11.536 87.348 11.536H91.572C91.668 11.536 91.764 11.44 91.764 11.344V8.89601C91.812 8.80001 91.716 8.70399 91.572 8.70399ZM91.524 12.352H87.444C87.348 12.352 87.252 12.448 87.252 12.544V23.056C87.252 23.152 87.348 23.248 87.444 23.248H91.524C91.62 23.248 91.716 23.152 91.716 23.056V12.592C91.716 12.448 91.62 12.352 91.524 12.352ZM98.292 12.112C94.692 12.112 92.148 14.752 92.148 17.824V17.872C92.148 20.944 94.692 23.536 98.244 23.536C101.844 23.536 104.388 20.896 104.388 17.824V17.776C104.388 14.704 101.844 12.112 98.292 12.112ZM100.02 17.824C100.02 18.88 99.3 19.696 98.292 19.696C97.284 19.696 96.516 18.832 96.516 17.776V17.728C96.516 16.672 97.236 15.856 98.244 15.856C99.252 15.856 100.02 16.72 100.02 17.824ZM36.612 4C29.988 4 24.612 9.376 24.612 16C24.612 22.624 29.988 28 36.612 28C43.236 28 48.612 22.624 48.612 16C48.612 9.376 43.236 4 36.612 4ZM36.612 24.832C31.716 24.832 27.78 20.896 27.78 16C27.78 11.104 31.716 7.168 36.612 7.168C41.508 7.168 45.444 11.104 45.444 16C45.444 20.896 41.508 24.832 36.612 24.832Z" fill="white"/>
<path d="M39.588 15.52C40.9665 15.52 42.084 14.4025 42.084 13.024C42.084 11.6455 40.9665 10.528 39.588 10.528C38.2095 10.528 37.092 11.6455 37.092 13.024C37.092 14.4025 38.2095 15.52 39.588 15.52Z" fill="white"/>
<path d="M39.588 21.472C40.9665 21.472 42.084 20.3545 42.084 18.976C42.084 17.5975 40.9665 16.48 39.588 16.48C38.2095 16.48 37.092 17.5975 37.092 18.976C37.092 20.3545 38.2095 21.472 39.588 21.472Z" fill="white"/>
<path d="M33.636 21.472C35.0145 21.472 36.132 20.3545 36.132 18.976C36.132 17.5975 35.0145 16.48 33.636 16.48C32.2575 16.48 31.14 17.5975 31.14 18.976C31.14 20.3545 32.2575 21.472 33.636 21.472Z" fill="white"/>
<path d="M33.636 15.52C35.0145 15.52 36.132 14.4025 36.132 13.024C36.132 11.6455 35.0145 10.528 33.636 10.528C32.2575 10.528 31.14 11.6455 31.14 13.024C31.14 14.4025 32.2575 15.52 33.636 15.52Z" fill="white"/>
</g>
</g>
</svg>
