<svg width="32" height="32" viewBox="0 0 32 32" fill="none" xmlns="http://www.w3.org/2000/svg">
<g id="Icon">
<g id="Icon_2">
<path d="M23.0572 14.2763L14.8541 22.4793C13.5989 20.2473 11.7528 18.4013 9.52077 17.146L19.8248 6.84194C20.3528 6.31393 20.6169 6.04992 20.9213 5.951C21.1891 5.86399 21.4775 5.86399 21.7453 5.951C22.0498 6.04992 22.3138 6.31393 22.8418 6.84195L25.1582 9.1583C25.6862 9.68632 25.9502 9.95033 26.0491 10.2548C26.1361 10.5226 26.1361 10.811 26.0491 11.0788C25.9502 11.3833 25.6862 11.6473 25.1582 12.1753L24.9428 12.3906L27.1381 14.5859C27.9191 15.367 27.9191 16.6333 27.1381 17.4143L23.6095 20.9429C23.0888 21.4636 22.2446 21.4636 21.7239 20.9429C21.2032 20.4222 21.2032 19.578 21.7239 19.0573L24.781 16.0001L23.0572 14.2763Z" fill="white"/>
<path d="M7.68147 19.6223L6.68256 22.6191C6.24829 23.9219 6.03116 24.5733 6.18563 25.0064C6.32005 25.3834 6.6167 25.6801 6.99366 25.8145C7.42684 25.9689 8.07825 25.7518 9.38102 25.3176L12.3778 24.3186C12.5288 24.2683 12.648 24.2285 12.7477 24.1933C11.6637 22.067 9.93307 20.3364 7.80685 19.2524C7.77156 19.3521 7.73179 19.4714 7.68147 19.6223Z" fill="white"/>
</g>
</g>
</svg>
