<svg width="40" height="40" viewBox="0 0 40 40" fill="none" xmlns="http://www.w3.org/2000/svg">
<path fill-rule="evenodd" clip-rule="evenodd" d="M20 0C31.0457 0 40 8.9543 40 20C40 31.0457 31.0457 40 20 40C8.9543 40 0 31.0457 0 20C0 8.9543 8.9543 0 20 0ZM20 1.5C9.78273 1.5 1.5 9.78273 1.5 20C1.5 30.2173 9.78273 38.5 20 38.5C30.2173 38.5 38.5 30.2173 38.5 20C38.5 9.78273 30.2173 1.5 20 1.5ZM19.2308 16.8824C19.2308 14.7382 17.5088 13 15.3846 13H10.7692L10.6649 13.0071C10.2894 13.0585 10 13.3834 10 13.7765V19.9879V26.2002L10.007 26.3056C10.058 26.6846 10.3798 26.9767 10.7692 26.9767H15.3846L15.5889 26.9713C17.6181 26.8641 19.2308 25.1693 19.2308 23.0943L19.2254 22.8881C19.1653 21.7274 18.6001 20.7016 17.7474 20.0307L17.6903 19.9883L17.7474 19.946C18.6502 19.2356 19.2308 18.1274 19.2308 16.8824ZM11.5383 25.4246V20.7644H15.3637L15.3844 20.7657L15.5424 20.7711C16.7432 20.853 17.6921 21.8622 17.6921 23.0951L17.6868 23.2546C17.6056 24.4668 16.6058 25.4246 15.3844 25.4246H11.5383ZM15.3846 19.2114C15.3996 19.2114 15.4145 19.2118 15.4292 19.2127L15.5424 19.2073C16.7432 19.1254 17.6921 18.1162 17.6921 16.8833C17.6921 15.6504 16.7432 14.6412 15.5424 14.5592L15.3844 14.5538H11.5383V19.2114H15.3846ZM25.6411 16.6243C28.0485 16.6243 30.0001 18.5943 30.0001 21.0244C30.0001 21.4175 29.7107 21.7423 29.3352 21.7938L29.2309 21.8008H22.8206V23.036L22.8449 23.1746C23.069 24.2755 23.9164 25.1416 25.004 25.3816L25.1875 25.4158C26.4244 25.6038 27.6362 24.947 28.1643 23.8025C28.3437 23.4137 28.8013 23.2454 29.1864 23.4264C29.5715 23.6075 29.7383 24.0694 29.5589 24.4581C28.7428 26.227 26.8699 27.242 24.9584 26.9514C23.1176 26.6716 21.6644 25.2454 21.3237 23.414L21.2893 23.201L21.2821 23.095V21.0244C21.2821 18.5943 23.2337 16.6243 25.6411 16.6243ZM25.6413 18.1781C24.372 18.1781 23.2986 19.0244 22.9446 20.1885L22.9275 20.2487H28.3541L28.338 20.1885C28.0001 19.0773 27.0067 18.2557 25.8131 18.1833L25.6413 18.1781ZM27.1793 13C27.6042 13 27.9486 13.3476 27.9486 13.7765C27.9486 14.1696 27.6592 14.4945 27.2837 14.5459L27.1793 14.553H24.1024C23.6776 14.553 23.3332 14.2053 23.3332 13.7765C23.3332 13.3834 23.6226 13.0585 23.998 13.0071L24.1024 13H27.1793Z" fill="#212121"/>
</svg>
