<svg width="40" height="40" viewBox="0 0 40 40" fill="none" xmlns="http://www.w3.org/2000/svg">
<path fill-rule="evenodd" clip-rule="evenodd" d="M20 0C31.0457 0 40 8.9543 40 20C40 31.0457 31.0457 40 20 40C8.9543 40 0 31.0457 0 20C0 8.9543 8.9543 0 20 0ZM20 1.5C9.78273 1.5 1.5 9.78273 1.5 20C1.5 30.2173 9.78273 38.5 20 38.5C30.2173 38.5 38.5 30.2173 38.5 20C38.5 9.78273 30.2173 1.5 20 1.5ZM13.4211 10C14.1405 10 14.735 10.5346 14.8291 11.2282L14.8421 11.44C14.8421 12.2248 14.2059 12.8611 13.4211 12.8611C12.7016 12.8611 12.1071 12.3264 12.013 11.6328L12 11.4211C12 10.6362 12.6362 10 13.4211 10ZM13.4211 15.6859C14.1405 15.6859 14.735 16.2205 14.8291 16.9141L14.8421 17.1069V26.5806C14.8421 27.3654 14.2059 28.0016 13.4211 28.0016C12.7016 28.0016 12.1071 27.467 12.013 26.7734L12 26.5806V17.1069C12 16.3221 12.6362 15.6859 13.4211 15.6859ZM21 15.6859C21.5135 15.6859 21.9634 15.9582 22.2131 16.3664C22.9729 15.9333 23.8523 15.6859 24.7895 15.6859C27.5606 15.6859 29.8265 17.8491 29.9905 20.579L30 20.8964V26.5806C30 27.3654 29.3638 28.0016 28.579 28.0016C27.8595 28.0016 27.265 27.467 27.1709 26.7734L27.1579 26.5806V20.8964C27.1579 19.5883 26.0975 18.528 24.7895 18.528C23.5632 18.528 22.5546 19.4599 22.4333 20.6542L22.4211 20.8964L22.4211 20.8987V26.5806C22.4211 27.3654 21.7848 28.0016 21 28.0016C20.2806 28.0016 19.686 27.467 19.5919 26.7734L19.579 26.5806V20.8964V17.1069C19.579 16.3221 20.2152 15.6859 21 15.6859Z" fill="#212121"/>
</svg>
