<svg width="22" height="22" viewBox="0 0 22 22" fill="none" xmlns="http://www.w3.org/2000/svg">
<g id="document/5">
<path id="Icon" d="M7.33268 11.9983C6.87152 11.9983 6.49768 12.3721 6.49768 12.8333C6.49768 13.2944 6.87152 13.6683 7.33268 13.6683V11.9983ZM14.666 13.6683C15.1272 13.6683 15.501 13.2944 15.501 12.8333C15.501 12.3721 15.1272 11.9983 14.666 11.9983V13.6683ZM7.33268 8.33158C6.87152 8.33158 6.49768 8.70543 6.49768 9.16658C6.49768 9.62774 6.87152 10.0016 7.33268 10.0016V8.33158ZM14.666 10.0016C15.1272 10.0016 15.501 9.62774 15.501 9.16658C15.501 8.70543 15.1272 8.33158 14.666 8.33158V10.0016ZM7.33268 4.66492C6.87152 4.66492 6.49768 5.03876 6.49768 5.49992C6.49768 5.96108 6.87152 6.33492 7.33268 6.33492V4.66492ZM14.666 6.33492C15.1272 6.33492 15.501 5.96108 15.501 5.49992C15.501 5.03876 15.1272 4.66492 14.666 4.66492V6.33492ZM7.33268 15.6649C6.87152 15.6649 6.49768 16.0388 6.49768 16.4999C6.49768 16.9611 6.87152 17.3349 7.33268 17.3349V15.6649ZM10.9993 17.3349C11.4605 17.3349 11.8343 16.9611 11.8343 16.4999C11.8343 16.0388 11.4605 15.6649 10.9993 15.6649V17.3349ZM4.65423 19.9602L4.26932 20.7012L4.65423 19.9602ZM3.87242 19.1784L3.13143 19.5633L3.87242 19.1784ZM18.1263 19.1784L18.8673 19.5633L18.1263 19.1784ZM17.3445 19.9602L17.7294 20.7012L17.3445 19.9602ZM17.3445 2.03966L17.7294 1.29867L17.3445 2.03966ZM18.1263 2.82147L18.8673 2.43655V2.43655L18.1263 2.82147ZM4.65423 2.03966L4.26932 1.29867L4.65423 2.03966ZM3.87242 2.82147L3.13143 2.43655L3.87242 2.82147ZM7.33268 13.6683H14.666V11.9983H7.33268V13.6683ZM7.33268 10.0016H14.666V8.33158H7.33268V10.0016ZM7.33268 6.33492H14.666V4.66492H7.33268V6.33492ZM7.33268 17.3349H10.9993V15.6649H7.33268V17.3349ZM6.61768 2.66825H15.381V0.998252H6.61768V2.66825ZM17.4977 4.78492V17.2149H19.1677V4.78492H17.4977ZM15.381 19.3316H6.61768V21.0016H15.381V19.3316ZM4.50102 17.2149V4.78492H2.83102V17.2149H4.50102ZM6.61768 19.3316C6.08163 19.3316 5.73066 19.3309 5.46254 19.3086C5.20443 19.2872 5.09877 19.2502 5.03914 19.2192L4.26932 20.7012C4.60704 20.8766 4.96108 20.9428 5.32433 20.9729C5.67759 21.0023 6.10966 21.0016 6.61768 21.0016V19.3316ZM2.83102 17.2149C2.83102 17.7229 2.83034 18.155 2.85968 18.5083C2.88985 18.8715 2.956 19.2256 3.13143 19.5633L4.61341 18.7935C4.58244 18.7338 4.54539 18.6282 4.52395 18.3701C4.50169 18.1019 4.50102 17.751 4.50102 17.2149H2.83102ZM5.03914 19.2192C4.8568 19.1245 4.70813 18.9758 4.61341 18.7935L3.13143 19.5633C3.38459 20.0506 3.78196 20.448 4.26932 20.7012L5.03914 19.2192ZM17.4977 17.2149C17.4977 17.751 17.497 18.1019 17.4747 18.3701C17.4533 18.6282 17.4163 18.7338 17.3853 18.7935L18.8673 19.5633C19.0427 19.2256 19.1089 18.8715 19.139 18.5083C19.1684 18.155 19.1677 17.7229 19.1677 17.2149H17.4977ZM15.381 21.0016C15.889 21.0016 16.3211 21.0023 16.6744 20.9729C17.0376 20.9428 17.3917 20.8766 17.7294 20.7012L16.9596 19.2192C16.8999 19.2502 16.7943 19.2872 16.5362 19.3086C16.268 19.3309 15.9171 19.3316 15.381 19.3316V21.0016ZM17.3853 18.7935C17.2906 18.9758 17.1419 19.1245 16.9596 19.2192L17.7294 20.7012C18.2167 20.448 18.6141 20.0506 18.8673 19.5633L17.3853 18.7935ZM15.381 2.66825C15.9171 2.66825 16.268 2.66892 16.5362 2.69119C16.7943 2.71262 16.8999 2.74968 16.9596 2.78065L17.7294 1.29867C17.3917 1.12323 17.0376 1.05708 16.6744 1.02692C16.3211 0.997581 15.889 0.998252 15.381 0.998252V2.66825ZM19.1677 4.78492C19.1677 4.2769 19.1684 3.84483 19.139 3.49157C19.1089 3.12832 19.0427 2.77428 18.8673 2.43655L17.3853 3.20638C17.4163 3.266 17.4533 3.37166 17.4747 3.62978C17.497 3.89789 17.4977 4.24887 17.4977 4.78492H19.1677ZM16.9596 2.78065C17.1419 2.87537 17.2906 3.02404 17.3853 3.20638L18.8673 2.43655C18.6141 1.9492 18.2167 1.55183 17.7294 1.29867L16.9596 2.78065ZM6.61768 0.998252C6.10966 0.998252 5.67759 0.997581 5.32433 1.02692C4.96108 1.05708 4.60704 1.12323 4.26932 1.29867L5.03914 2.78065C5.09877 2.74968 5.20443 2.71262 5.46254 2.69119C5.73066 2.66892 6.08163 2.66825 6.61768 2.66825V0.998252ZM4.50102 4.78492C4.50102 4.24887 4.50169 3.89789 4.52395 3.62978C4.54539 3.37166 4.58244 3.266 4.61341 3.20638L3.13143 2.43655C2.956 2.77428 2.88985 3.12832 2.85968 3.49157C2.83034 3.84483 2.83102 4.2769 2.83102 4.78492H4.50102ZM4.26932 1.29867C3.78196 1.55183 3.38459 1.9492 3.13143 2.43655L4.61341 3.20638C4.70813 3.02404 4.8568 2.87537 5.03914 2.78065L4.26932 1.29867Z" fill="#5F6D7E"/>
</g>
</svg>
