<svg width="14" height="14" viewBox="0 0 14 14" fill="none" xmlns="http://www.w3.org/2000/svg">
<g id="Lead Icon">
<path id="Icon" d="M1.75 5.83333H12.25M5.25 2.91667H3.61667C2.96327 2.91667 2.63657 2.91667 2.38701 3.04383C2.16749 3.15568 1.98901 3.33416 1.87716 3.55368C1.75 3.80324 1.75 4.12994 1.75 4.78333V10.3833C1.75 11.0367 1.75 11.3634 1.87716 11.613C1.98901 11.8325 2.16749 12.011 2.38701 12.1228C2.63657 12.25 2.96327 12.25 3.61667 12.25H10.3833C11.0367 12.25 11.3634 12.25 11.613 12.1228C11.8325 12.011 12.011 11.8325 12.1228 11.613C12.25 11.3634 12.25 11.0367 12.25 10.3833V4.78333C12.25 4.12994 12.25 3.80324 12.1228 3.55368C12.011 3.33416 11.8325 3.15568 11.613 3.04383C11.3634 2.91667 11.0367 2.91667 10.3833 2.91667H8.75M5.25 2.91667H8.75M5.25 2.91667V2.625C5.25 2.14175 4.85825 1.75 4.375 1.75C3.89175 1.75 3.5 2.14175 3.5 2.625V2.91667M8.75 2.91667V2.625C8.75 2.14175 9.14175 1.75 9.625 1.75C10.1082 1.75 10.5 2.14175 10.5 2.625V2.91667" stroke="#437EF7" stroke-width="1.5" stroke-linecap="round"/>
</g>
</svg>
