<svg width="20" height="20" viewBox="0 0 20 20" fill="none" xmlns="http://www.w3.org/2000/svg">
<g id="Icon">
<path id="Icon_2" d="M13.334 4.1685C13.7951 4.1685 14.169 3.79465 14.169 3.3335C14.169 2.87234 13.7951 2.4985 13.334 2.4985V4.1685ZM4.244 16.4852L4.62308 15.7412L4.62308 15.7412L4.244 16.4852ZM3.51564 15.7568L2.77165 16.1359L3.51564 15.7568ZM16.4857 15.7568L15.7417 15.3777L16.4857 15.7568ZM15.7573 16.4852L15.3782 15.7412L15.7573 16.4852ZM4.244 3.51515L4.62308 4.25914V4.25914L4.244 3.51515ZM3.51564 4.24351L4.25963 4.62259H4.25963L3.51564 4.24351ZM17.5023 10.8335C17.5023 10.3723 17.1285 9.9985 16.6673 9.9985C16.2062 9.9985 15.8323 10.3723 15.8323 10.8335H17.5023ZM10.644 11.9047L10.0516 11.3163V11.3163L10.644 11.9047ZM18.0931 5.58854C18.4181 5.26131 18.4162 4.73262 18.089 4.40767C17.7618 4.08273 17.2331 4.08457 16.9082 4.41179L18.0931 5.58854ZM9.46143 11.9047L10.0539 11.3163L9.46143 11.9047ZM7.25981 8.5027C6.93486 8.17548 6.40617 8.17363 6.07894 8.49858C5.75172 8.82353 5.74988 9.35222 6.07483 9.67945L7.25981 8.5027ZM6.00065 4.1685H13.334V2.4985H6.00065V4.1685ZM14.0007 15.8318H6.00065V17.5018H14.0007V15.8318ZM4.16898 14.0002V6.00016H2.49898V14.0002H4.16898ZM6.00065 15.8318C5.52016 15.8318 5.21001 15.8312 4.97398 15.8119C4.7477 15.7934 4.66401 15.762 4.62308 15.7412L3.86492 17.2292C4.18051 17.39 4.50843 17.4494 4.83799 17.4763C5.1578 17.5025 5.54772 17.5018 6.00065 17.5018V15.8318ZM2.49898 14.0002C2.49898 14.4531 2.49834 14.843 2.52446 15.1628C2.55139 15.4924 2.61085 15.8203 2.77165 16.1359L4.25963 15.3777C4.23878 15.3368 4.20741 15.2531 4.18892 15.0268C4.16963 14.7908 4.16898 14.4807 4.16898 14.0002H2.49898ZM4.62308 15.7412C4.46659 15.6614 4.33937 15.5342 4.25963 15.3777L2.77165 16.1359C3.01149 16.6066 3.3942 16.9893 3.86492 17.2292L4.62308 15.7412ZM15.8323 14.0002C15.8323 14.4807 15.8317 14.7908 15.8124 15.0268C15.7939 15.2531 15.7625 15.3368 15.7417 15.3777L17.2297 16.1359C17.3905 15.8203 17.4499 15.4924 17.4768 15.1628C17.503 14.843 17.5023 14.4531 17.5023 14.0002H15.8323ZM14.0007 17.5018C14.4536 17.5018 14.8435 17.5025 15.1633 17.4763C15.4929 17.4494 15.8208 17.39 16.1364 17.2292L15.3782 15.7412C15.3373 15.762 15.2536 15.7934 15.0273 15.8119C14.7913 15.8312 14.4811 15.8318 14.0007 15.8318V17.5018ZM15.7417 15.3777C15.6619 15.5342 15.5347 15.6614 15.3782 15.7412L16.1364 17.2292C16.6071 16.9893 16.9898 16.6066 17.2297 16.1359L15.7417 15.3777ZM6.00065 2.4985C5.54772 2.4985 5.1578 2.49785 4.83799 2.52398C4.50843 2.5509 4.18051 2.61036 3.86492 2.77116L4.62308 4.25914C4.66401 4.23829 4.7477 4.20692 4.97398 4.18843C5.21001 4.16915 5.52016 4.1685 6.00065 4.1685V2.4985ZM4.16898 6.00016C4.16898 5.51967 4.16963 5.20953 4.18892 4.97349C4.20741 4.74721 4.23878 4.66352 4.25963 4.62259L2.77165 3.86443C2.61085 4.18002 2.55139 4.50795 2.52446 4.8375C2.49834 5.15731 2.49898 5.54723 2.49898 6.00016H4.16898ZM3.86492 2.77116C3.3942 3.011 3.01149 3.39371 2.77165 3.86443L4.25963 4.62259C4.33937 4.46611 4.46659 4.33888 4.62308 4.25914L3.86492 2.77116ZM17.5023 14.0002V10.8335H15.8323V14.0002H17.5023ZM11.2365 12.4931L18.0931 5.58854L16.9082 4.41179L10.0516 11.3163L11.2365 12.4931ZM10.0539 11.3163L7.25981 8.5027L6.07483 9.67945L8.86894 12.4931L10.0539 11.3163ZM10.0516 11.3163C10.0506 11.3173 10.0511 11.3166 10.0525 11.316C10.0534 11.3157 10.0534 11.3159 10.0527 11.3159C10.0521 11.3159 10.0521 11.3157 10.0529 11.316C10.0543 11.3166 10.0549 11.3173 10.0539 11.3163L8.86894 12.4931C9.52139 13.1501 10.5841 13.1501 11.2365 12.4931L10.0516 11.3163Z" fill="#437EF7"/>
</g>
</svg>
