<svg width="22" height="22" viewBox="0 0 22 22" fill="none" xmlns="http://www.w3.org/2000/svg">
<g id="calendar/check">
<path id="Icon" d="M13.75 11L10.4074 14.3426C10.2284 14.5216 9.93823 14.5216 9.75924 14.3426L8.25 12.8333" stroke="#5F6D7E" stroke-width="1.67" stroke-linecap="round"/>
<path id="Icon_2" d="M2.75 8.25H19.25" stroke="#5F6D7E" stroke-width="2" stroke-linecap="round"/>
<path id="Icon_3" d="M5.5 4.58333V4.125C5.5 3.36561 6.11561 2.75 6.875 2.75C7.63439 2.75 8.25 3.36561 8.25 4.125V4.58333M13.75 4.58333V4.125C13.75 3.36561 14.3656 2.75 15.125 2.75C15.8844 2.75 16.5 3.36561 16.5 4.125V4.58333M5.68333 19.25H16.3167C17.3434 19.25 17.8568 19.25 18.249 19.0502C18.5939 18.8744 18.8744 18.5939 19.0502 18.249C19.25 17.8568 19.25 17.3434 19.25 16.3167V7.51667C19.25 6.4899 19.25 5.97652 19.0502 5.58435C18.8744 5.23939 18.5939 4.95892 18.249 4.78315C17.8568 4.58333 17.3434 4.58333 16.3167 4.58333H5.68333C4.65657 4.58333 4.14319 4.58333 3.75102 4.78315C3.40605 4.95892 3.12559 5.23939 2.94982 5.58435C2.75 5.97652 2.75 6.4899 2.75 7.51667V16.3167C2.75 17.3434 2.75 17.8568 2.94982 18.249C3.12559 18.5939 3.40605 18.8744 3.75102 19.0502C4.14319 19.25 4.65657 19.25 5.68333 19.25Z" stroke="#5F6D7E" stroke-width="2" stroke-linecap="round"/>
</g>
</svg>
