<svg width="22" height="22" viewBox="0 0 22 22" fill="none" xmlns="http://www.w3.org/2000/svg">
<g id="user/circle" clip-path="url(#clip0_3570_51912)">
<path id="Icon" d="M17.9731 17.5943C17.6095 16.8819 17.1297 16.2136 16.5336 15.6176C13.4772 12.5611 8.52165 12.5611 5.46518 15.6176C4.86911 16.2136 4.38929 16.8819 4.02572 17.5943M0.916016 11.0001C0.916016 5.43121 5.43048 0.916748 10.9994 0.916748C16.5682 0.916749 21.0827 5.43121 21.0827 11.0001C21.0827 16.569 16.5682 21.0834 10.9993 21.0834C5.43048 21.0834 0.916015 16.5689 0.916016 11.0001ZM14.666 9.16675C14.666 11.1918 13.0244 12.8334 10.9993 12.8334C8.97431 12.8334 7.33268 11.1918 7.33268 9.16675C7.33268 7.1417 8.97431 5.50008 10.9993 5.50008C13.0244 5.50008 14.666 7.1417 14.666 9.16675Z" stroke="#5F6D7E" stroke-width="1.67"/>
</g>
<defs>
<clipPath id="clip0_3570_51912">
<rect width="22" height="22" fill="white"/>
</clipPath>
</defs>
</svg>
