<svg width="24" height="24" viewBox="0 0 24 24" fill="none" xmlns="http://www.w3.org/2000/svg">
<g id="happy">
<path id="Icon" d="M8 15C8.33333 15.6667 9.6 17 12 17C14.4 17 15.6667 15.6667 16 15M8.31238 9.31247H8.68738M8.31238 9.68747H8.68738M15.3124 9.31247H15.6874M15.3124 9.68747H15.6874M22 12C22 17.5228 17.5228 22 12 22C6.47715 22 2 17.5228 2 12C2 6.47715 6.47715 2 12 2C17.5228 2 22 6.47715 22 12ZM9 9.5C9 9.77614 8.77614 10 8.5 10C8.22386 10 8 9.77614 8 9.5C8 9.22386 8.22386 9 8.5 9C8.77614 9 9 9.22386 9 9.5ZM16 9.5C16 9.77614 15.7761 10 15.5 10C15.2239 10 15 9.77614 15 9.5C15 9.22386 15.2239 9 15.5 9C15.7761 9 16 9.22386 16 9.5Z" stroke="#5F6D7E" stroke-width="1.5" stroke-linecap="round"/>
</g>
</svg>
