<svg width="22" height="22" viewBox="0 0 22 22" fill="none" xmlns="http://www.w3.org/2000/svg">
<g id="box/double/horizontal" clip-path="url(#clip0_3570_51906)">
<path id="Icon" d="M8.24935 0.916748L13.7493 0.916748C16.3163 0.916748 17.5997 0.916748 18.5801 1.4163C19.4425 1.85572 20.1437 2.55688 20.5831 3.41929C21.0827 4.39972 21.0827 5.68317 21.0827 8.25008V13.7501C21.0827 16.317 21.0827 17.6004 20.5831 18.5809C20.1437 19.4433 19.4425 20.1444 18.5801 20.5839C17.5997 21.0834 16.3163 21.0834 13.7493 21.0834H8.24935M8.24935 0.916748C5.68244 0.916748 4.39899 0.916748 3.41856 1.4163C2.55615 1.85572 1.85499 2.55688 1.41557 3.41929C0.916015 4.39972 0.916016 5.68317 0.916016 8.25008L0.916016 13.7501C0.916016 16.317 0.916016 17.6004 1.41557 18.5809C1.85499 19.4433 2.55615 20.1444 3.41856 20.5839C4.39899 21.0834 5.68244 21.0834 8.24935 21.0834M8.24935 0.916748L8.24935 21.0834M8.24935 11.0001L21.9993 11.0001" stroke="#5F6D7E" stroke-width="1.67" stroke-linecap="round"/>
</g>
<defs>
<clipPath id="clip0_3570_51906">
<rect width="22" height="22" fill="white"/>
</clipPath>
</defs>
</svg>
