<svg width="24" height="24" viewBox="0 0 24 24" fill="none" xmlns="http://www.w3.org/2000/svg">
<g id="ring/notification/2">
<path id="Icon" d="M9 19.6459C9.73294 20.4763 10.8053 21 12 21C13.1947 21 14.2671 20.4763 15 19.6459M16 1.93555C18.387 3.12178 20.1726 5.33657 20.777 8.00003M17.9974 13.1809V10.0001C17.9974 6.67784 15.3223 4.00012 12 4.00012C8.67772 4.00012 5.96637 6.56368 5.96637 10.0001V13.1594C5.96637 13.6426 5.89106 14.1226 5.74334 14.5809L5.00488 16.8724C4.98466 16.9352 5.02981 17 5.09375 17H18.8632C18.9308 17 18.9788 16.9341 18.958 16.8698L18.2146 14.5627C18.0707 14.1162 17.9974 13.65 17.9974 13.1809Z" stroke="#5F6D7E" stroke-width="2" stroke-linecap="round"/>
</g>
</svg>
