<svg width="20" height="20" viewBox="0 0 20 20" fill="none" xmlns="http://www.w3.org/2000/svg">
<g id="zoom/search" clip-path="url(#clip0_3800_34807)">
<path id="Icon" d="M18.5769 19.7568C18.903 20.0829 19.4317 20.0829 19.7577 19.7568C20.0838 19.4307 20.0838 18.902 19.7577 18.5759L18.5769 19.7568ZM15.097 8.38203C15.097 12.0901 12.0911 15.096 8.383 15.096V16.766C13.0134 16.766 16.767 13.0124 16.767 8.38203H15.097ZM8.383 15.096C4.67495 15.096 1.66898 12.0901 1.66898 8.38203H-0.0010156C-0.0010156 13.0124 3.75264 16.766 8.383 16.766V15.096ZM1.66898 8.38203C1.66898 4.67398 4.67495 1.66801 8.383 1.66801V-0.00199217C3.75264 -0.00199217 -0.0010156 3.75166 -0.0010156 8.38203H1.66898ZM8.383 1.66801C12.0911 1.66801 15.097 4.67398 15.097 8.38203H16.767C16.767 3.75166 13.0134 -0.00199217 8.383 -0.00199217V1.66801ZM13.1847 14.3646L18.5769 19.7568L19.7577 18.5759L14.3656 13.1837L13.1847 14.3646Z" fill="#272D37"/>
</g>
<defs>
<clipPath id="clip0_3800_34807">
<rect width="20" height="20" fill="white"/>
</clipPath>
</defs>
</svg>
