<svg width="22" height="22" viewBox="0 0 22 22" fill="none" xmlns="http://www.w3.org/2000/svg">
<g id="star/circle" clip-path="url(#clip0_3570_51969)">
<g id="Icon">
<path d="M12.9912 7.33776L11.7881 5.2435C11.4371 4.63244 10.5566 4.62952 10.2015 5.23823L8.91946 7.43598C8.65522 7.88896 8.20965 8.2071 7.69541 8.30994L6.11534 8.62596C5.40934 8.76716 5.13424 9.62982 5.62815 10.1537L6.75947 11.3535C7.18107 11.8007 7.35058 12.4293 7.21093 13.0278L6.67501 15.3246C6.49156 16.1108 7.34048 16.7331 8.03501 16.3215L10.0647 15.1188C10.641 14.7772 11.3577 14.7772 11.934 15.1188L13.9637 16.3215C14.6582 16.7331 15.5071 16.1108 15.3237 15.3246L14.78 12.9943C14.6446 12.4144 14.7994 11.8048 15.1951 11.3597L16.3543 10.0556C16.8246 9.52651 16.5431 8.68662 15.8489 8.54778L14.2214 8.22226C13.703 8.11858 13.2545 7.79616 12.9912 7.33776Z" stroke="#5F6D7E" stroke-width="1.67"/>
<path d="M21.0827 11.0001C21.0827 16.569 16.5682 21.0834 10.9993 21.0834C5.43048 21.0834 0.916016 16.569 0.916016 11.0001C0.916016 5.43121 5.43048 0.916748 10.9993 0.916748C16.5682 0.916748 21.0827 5.43121 21.0827 11.0001Z" stroke="#5F6D7E" stroke-width="1.67"/>
</g>
</g>
<defs>
<clipPath id="clip0_3570_51969">
<rect width="22" height="22" fill="white"/>
</clipPath>
</defs>
</svg>
