<svg width="22" height="24" viewBox="0 0 22 24" fill="none" xmlns="http://www.w3.org/2000/svg">
<g id="Logo">
<path id="Vector" d="M16.1003 8.66347C17.6436 9.77064 19.5343 10.4221 21.5763 10.4221V6.47861C21.1899 6.47869 20.8044 6.43825 20.4263 6.35786V9.46193C18.3845 9.46193 16.494 8.81049 14.9503 7.7034V15.7509C14.9503 19.7766 11.6984 23.0399 7.68716 23.0399C6.19049 23.0399 4.79938 22.5858 3.6438 21.807C4.96271 23.1604 6.80203 24 8.83692 24C12.8484 24 16.1005 20.7367 16.1005 16.7108V8.66347H16.1003ZM17.519 4.68499C16.7302 3.82023 16.2123 2.70267 16.1003 1.46717V0.959961H15.0105C15.2848 2.53028 16.2205 3.87187 17.519 4.68499ZM6.18089 18.7178C5.74021 18.1379 5.50207 17.4286 5.50314 16.6992C5.50314 14.858 6.99054 13.3651 8.8256 13.3651C9.16759 13.365 9.50753 13.4176 9.83345 13.5214V9.48977C9.45257 9.43739 9.06817 9.41515 8.68393 9.4233V12.5613C8.35777 12.4575 8.01767 12.4048 7.67559 12.4051C5.84054 12.4051 4.35321 13.8979 4.35321 15.7393C4.35321 17.0414 5.09667 18.1687 6.18089 18.7178Z" fill="white"/>
<path id="Vector_2" d="M14.9503 7.70332C16.4941 8.81041 18.3845 9.46185 20.4263 9.46185V6.35778C19.2866 6.11414 18.2776 5.5164 17.519 4.68499C16.2204 3.87179 15.2848 2.5302 15.0105 0.959961H12.1479V16.7106C12.1414 18.5468 10.6566 20.0336 8.82545 20.0336C7.7464 20.0336 6.78777 19.5174 6.18065 18.7178C5.09652 18.1687 4.35306 17.0413 4.35306 15.7394C4.35306 13.8981 5.84038 12.4052 7.67544 12.4052C8.02703 12.4052 8.3659 12.4602 8.68378 12.5614V9.42338C4.74304 9.50509 1.57373 12.7365 1.57373 16.7107C1.57373 18.6946 2.36296 20.4931 3.64389 21.8071C4.79948 22.5858 6.19058 23.04 7.68725 23.04C11.6985 23.04 14.9504 19.7765 14.9504 15.7509V7.70332H14.9503Z" fill="white"/>
<path id="Vector_3" d="M20.4264 6.3578V5.51848C19.3986 5.52005 18.391 5.23119 17.519 4.68493C18.2909 5.53306 19.3074 6.11787 20.4264 6.3578ZM15.0105 0.959983C14.9844 0.809911 14.9643 0.658851 14.9503 0.507214V0H10.9978V15.7508C10.9915 17.5868 9.50675 19.0736 7.67546 19.0736C7.13783 19.0736 6.63021 18.9455 6.18068 18.7179C6.7878 19.5174 7.74642 20.0336 8.82547 20.0336C10.6564 20.0336 12.1415 18.5469 12.1479 16.7107V0.959983H15.0105ZM8.68397 9.42341V8.52989C8.35371 8.48459 8.02074 8.46186 7.68736 8.46202C3.67574 8.46194 0.423828 11.7254 0.423828 15.7508C0.423828 18.2745 1.70189 20.4987 3.644 21.807C2.36307 20.493 1.57384 18.6944 1.57384 16.7106C1.57384 12.7365 4.74306 9.50511 8.68397 9.42341Z" fill="white"/>
</g>
</svg>
