<svg width="72" height="36" viewBox="0 0 72 36" fill="none" xmlns="http://www.w3.org/2000/svg">
<g id="002-forever">
<path id="Path" d="M71.0869 19.1053C70.5088 19.0263 69.9767 19.431 69.8978 20.0088C69.3881 23.741 67.5412 27.1742 64.6969 29.6758C61.827 32.1999 58.1394 33.59 54.3129 33.59C52.2309 33.59 50.2087 33.19 48.3024 32.4011C48.2708 32.3881 48.2342 32.3753 48.2013 32.3653C48.1789 32.3585 45.9294 31.6558 42.5798 28.9969C42.1229 28.6342 41.4588 28.7107 41.0961 29.1675C40.7336 29.6244 40.8099 30.2885 41.2667 30.6512C44.703 33.3788 47.1172 34.2346 47.5381 34.3706C49.689 35.254 51.9679 35.702 54.3129 35.702C58.653 35.702 62.8361 34.1251 66.0918 31.2618C69.3173 28.425 71.412 24.5301 71.9904 20.2947C72.0692 19.7166 71.6647 19.1842 71.0869 19.1053Z" fill="black"/>
<path id="Shape" fill-rule="evenodd" clip-rule="evenodd" d="M54.3835 29.2094C50.6997 29.2095 47.9123 27.1671 45.671 25.1691C43.2559 23.016 41.2518 20.9119 40.189 19.7539C39.8392 20.1692 38.8537 21.3663 38.0495 22.3433C37.6071 22.8806 37.2196 23.3514 37.0228 23.5889C37.6766 24.3464 38.3422 25.0726 39.007 25.7532C39.4146 26.1705 39.4067 26.839 38.9895 27.2465C38.5722 27.6539 37.9037 27.646 37.4962 27.2289C36.8836 26.6019 36.2713 25.938 35.6678 25.2484C29.3517 32.9358 25.4364 34.1982 24.5636 34.3924C22.6584 35.1678 20.6446 35.6033 18.5768 35.6871C18.5697 35.6875 18.5626 35.6877 18.5555 35.6878H18.5552L17.8638 35.7017L17.8424 35.7019C13.0519 35.7019 8.55483 33.8295 5.17969 30.4296C1.80483 27.03 -0.0344026 22.5187 0.000472352 17.7265C0.0352067 12.972 1.93435 8.50571 5.34788 5.1504C8.76352 1.79326 13.2616 -0.0319129 18.0235 0.0178683C20.242 0.0399464 22.4039 0.464775 24.4491 1.28054C24.546 1.31921 24.6435 1.35746 24.7416 1.39417C25.7143 1.75782 30.6581 3.86256 36.2248 10.7921C42.6958 2.81785 46.7079 1.5234 47.5915 1.32652C49.4968 0.551118 51.5104 0.115603 53.5785 0.0317902C53.5856 0.0313683 53.5928 0.0312277 53.6 0.0310871L54.2914 0.0171652L54.3128 0.0170246C58.5916 0.0170246 62.7296 1.55476 65.9648 4.34687C69.166 7.10959 71.2876 10.9197 71.9392 15.0756C72.0294 15.6517 71.6356 16.192 71.0594 16.2824C70.4831 16.3723 69.9428 15.9788 69.8526 15.4027C69.2785 11.7404 67.4078 8.38182 64.5849 5.94563C61.7357 3.48667 58.0917 2.13146 54.3231 2.12893L53.6535 2.14243C51.8031 2.21865 50.0026 2.61409 48.3022 3.31777C48.2163 3.35335 48.1617 3.37248 48.072 3.38401C47.8595 3.43281 44.0058 4.42056 37.5085 12.5654C37.5062 12.5682 37.5039 12.5711 37.5016 12.5739C37.4995 12.5765 37.4974 12.5791 37.4953 12.5816C37.4953 12.5816 30.1533 21.3266 27.1093 24.5208C25.0291 26.7037 22.0877 29.2094 17.7724 29.2094C11.514 29.2092 6.42253 24.1176 6.42253 17.8594C6.42253 14.0553 8.3145 10.5227 11.4835 8.40924C11.9689 8.08581 12.6245 8.21687 12.948 8.70202C13.2715 9.18732 13.1405 9.84292 12.6552 10.1665C10.075 11.8869 8.53458 14.7625 8.53458 17.859C8.53458 22.9527 12.6788 27.0969 17.7725 27.0969C20.514 27.0969 22.9221 25.8528 25.5806 23.0632C27.3793 21.1759 29.0353 19.361 30.5821 17.5816C29.6036 16.5094 27.5409 14.3206 25.0791 12.1258C21.6162 9.03882 19.4424 8.62117 17.7729 8.62117H17.769C17.4615 8.62117 17.1514 8.63663 16.8469 8.66687C16.2677 8.72396 15.7493 8.30082 15.6917 7.72046C15.634 7.1401 16.0577 6.62302 16.6381 6.56523C17.0115 6.5281 17.3918 6.50926 17.7684 6.50926H17.7722C21.4559 6.50926 24.2432 8.55156 26.4845 10.5496C28.8998 12.7027 30.9031 14.806 31.9664 15.9643C32.5083 15.3208 34.8518 12.4587 34.8518 12.4587C29.3974 5.53487 24.5518 3.57765 24.0021 3.37206C23.8898 3.33001 23.7786 3.28642 23.6674 3.24212C21.865 2.52324 19.9594 2.14904 18.0027 2.12949C17.9498 2.12907 17.8964 2.12879 17.8435 2.12879C13.7089 2.12879 9.80302 3.7329 6.82852 6.65649C3.81802 9.61538 2.14318 13.5522 2.11266 17.7415C2.08172 21.9668 3.70341 25.9442 6.67875 28.9413C9.65185 31.9362 13.6125 33.5867 17.8319 33.5896L18.5017 33.5761C20.352 33.5 22.1526 33.1045 23.853 32.4009C23.9388 32.3653 23.9935 32.3463 24.0832 32.3346C24.2984 32.2853 28.2293 31.2766 34.8478 22.8999C35.0986 22.5826 42.0019 14.3921 45.0459 11.198C47.1262 9.0152 50.0678 6.50954 54.3827 6.50954H54.3828C60.6412 6.50954 65.7327 11.601 65.7327 17.8594C65.7327 24.1155 60.6432 29.207 54.3872 29.2094H54.3835ZM54.3828 8.62159C51.6413 8.62145 49.2333 9.86541 46.5748 12.6551C44.7763 14.5422 43.1198 16.3572 41.5732 18.1361C42.5512 19.2083 44.614 21.3975 47.0762 23.5927C50.5391 26.6798 52.7132 27.0975 54.3827 27.0975H54.3863C59.4782 27.0955 63.6208 22.9514 63.6208 17.8595C63.6208 12.7657 59.4765 8.62159 54.3828 8.62159Z" fill="black"/>
</g>
</svg>
