<svg width="71" height="72" viewBox="0 0 71 72" fill="none" xmlns="http://www.w3.org/2000/svg">
<g id="003-bullhorn">
<path id="Shape" fill-rule="evenodd" clip-rule="evenodd" d="M38.9508 62.5574H41.3115C41.9634 62.5574 42.4918 63.0858 42.4918 63.7377V66.0983C42.4918 69.3577 39.8495 72 36.5902 72H5.90164C2.64225 72 0 69.3577 0 66.0983V63.7377C0 63.0858 0.528451 62.5574 1.18033 62.5574H3.54098V37.7705C3.54098 37.1186 4.06943 36.5901 4.72131 36.5901H15.722C16.3738 36.5901 16.9023 37.1186 16.9023 37.7705C16.9023 38.4224 16.3738 38.9508 15.722 38.9508H5.90164V62.5574H36.5902V50.9901C36.5902 50.3383 37.1186 49.8098 37.7705 49.8098C38.4224 49.8098 38.9508 50.3383 38.9508 50.9901V62.5574ZM36.5902 69.6393C38.5458 69.6393 40.1311 68.054 40.1311 66.0983V64.918H2.36066V66.0983C2.36066 68.054 3.94601 69.6393 5.90164 69.6393H8.26229V68.459C8.26229 67.8071 8.79075 67.2787 9.44262 67.2787C10.0945 67.2787 10.623 67.8071 10.623 68.459V69.6393H31.8689V68.459C31.8689 67.8071 32.3973 67.2787 33.0492 67.2787C33.7011 67.2787 34.2295 67.8071 34.2295 68.459V69.6393H36.5902Z" fill="black"/>
<path id="Path" d="M61.3772 8.2623H63.7379C64.3898 8.2623 64.9182 7.73385 64.9182 7.08197C64.9182 6.43009 64.3898 5.90164 63.7379 5.90164H61.3772C59.4216 5.90164 57.8362 7.48699 57.8362 9.44263V10.623H56.6559C56.004 10.623 55.4756 11.1514 55.4756 11.8033C55.4756 12.4552 56.004 12.9836 56.6559 12.9836H57.8362V16.5246C57.8362 17.1765 58.3647 17.7049 59.0166 17.7049C59.6684 17.7049 60.1969 17.1765 60.1969 16.5246V12.9836H61.3772C62.0291 12.9836 62.5576 12.4552 62.5576 11.8033C62.5576 11.1514 62.0291 10.623 61.3772 10.623H60.1969V9.44263C60.1969 8.79075 60.7253 8.2623 61.3772 8.2623Z" fill="black"/>
<path id="Path_2" d="M67.2786 1.18033H53.1147C51.1591 1.18033 49.5737 2.76568 49.5737 4.72131V7.08197C49.5737 7.73384 50.1022 8.2623 50.7541 8.2623C51.4059 8.2623 51.9344 7.73384 51.9344 7.08197V4.72131C51.9344 4.06943 52.4628 3.54098 53.1147 3.54098H67.2786C67.9305 3.54098 68.459 4.06943 68.459 4.72131V18.8852C68.459 19.5371 67.9305 20.0656 67.2786 20.0656H53.1147C52.4628 20.0656 51.9344 19.5371 51.9344 18.8852V11.8033C51.9344 11.1514 51.4059 10.623 50.7541 10.623C50.1022 10.623 49.5737 11.1514 49.5737 11.8033V18.8852C49.5737 20.8409 51.1591 22.4262 53.1147 22.4262H67.2786C69.2343 22.4262 70.8196 20.8409 70.8196 18.8852V4.72131C70.8196 2.76568 69.2343 1.18033 67.2786 1.18033V1.18033Z" fill="black"/>
<path id="Shape_2" fill-rule="evenodd" clip-rule="evenodd" d="M60.1969 53.1147C57.5894 53.1147 55.4756 51.0009 55.4756 48.3934C55.4756 45.7859 57.5894 43.6721 60.1969 43.6721C62.8044 43.6721 64.9182 45.7859 64.9182 48.3934C64.9182 51.0009 62.8044 53.1147 60.1969 53.1147ZM60.1969 50.7541C61.5007 50.7541 62.5576 49.6972 62.5576 48.3934C62.5576 47.0897 61.5007 46.0328 60.1969 46.0328C58.8931 46.0328 57.8362 47.0897 57.8362 48.3934C57.8362 49.6972 58.8931 50.7541 60.1969 50.7541Z" fill="black"/>
<path id="Path_3" d="M67.2786 37.7705H53.1147C51.1591 37.7705 49.5737 39.3559 49.5737 41.3115V55.4754C49.5737 57.4311 51.1591 59.0164 53.1147 59.0164H67.2786C69.2343 59.0164 70.8196 57.4311 70.8196 55.4754V53.1148C70.8196 52.4629 70.2912 51.9344 69.6393 51.9344C68.9874 51.9344 68.459 52.4629 68.459 53.1148V55.4754C68.459 56.1273 67.9305 56.6558 67.2786 56.6558H53.1147C52.4628 56.6558 51.9344 56.1273 51.9344 55.4754V41.3115C51.9344 40.6596 52.4628 40.1312 53.1147 40.1312H67.2786C67.9305 40.1312 68.459 40.6596 68.459 41.3115V48.3935C68.459 49.0453 68.9874 49.5738 69.6393 49.5738C70.2912 49.5738 70.8196 49.0453 70.8196 48.3935V41.3115C70.8196 39.3559 69.2343 37.7705 67.2786 37.7705Z" fill="black"/>
<path id="Shape_3" fill-rule="evenodd" clip-rule="evenodd" d="M27.1476 15.3443C26.9266 15.345 26.7099 15.2836 26.522 15.1672C26.1762 14.9511 25.9665 14.5717 25.9673 14.1639V7.08197C25.9685 6.67288 26.1815 6.29359 26.5302 6.07959C26.8788 5.86559 27.3134 5.84738 27.6788 6.03148L34.7607 9.57246C35.1549 9.77441 35.4029 10.18 35.4029 10.623C35.4029 11.0659 35.1549 11.4715 34.7607 11.6734L27.6788 15.2144C27.5143 15.2987 27.3324 15.3432 27.1476 15.3443ZM31.5857 10.623L28.3279 8.9941V12.2518L31.5857 10.623Z" fill="black"/>
<path id="Shape_4" fill-rule="evenodd" clip-rule="evenodd" d="M40.1312 10.623C40.1312 16.4898 35.3751 21.2459 29.5082 21.2459C23.6413 21.2459 18.8853 16.4898 18.8853 10.623C18.8853 4.75606 23.6413 0 29.5082 0C35.3751 0 40.1312 4.75606 40.1312 10.623ZM37.7705 10.623C37.7705 6.05981 34.0713 2.36066 29.5082 2.36066C24.9451 2.36066 21.2459 6.05981 21.2459 10.623C21.2459 15.1861 24.9451 18.8852 29.5082 18.8852C34.0713 18.8852 37.7705 15.1861 37.7705 10.623Z" fill="black"/>
<path id="Path_4" d="M41.3113 25.9672C41.6828 25.9672 42.0326 25.7923 42.2555 25.4951L45.7965 20.7738C46.1876 20.2523 46.0819 19.5124 45.5604 19.1213C45.0389 18.7302 44.2991 18.8359 43.908 19.3574L40.367 24.0787C39.9759 24.6002 40.0816 25.34 40.6031 25.7311C40.8074 25.8844 41.0559 25.9672 41.3113 25.9672Z" fill="black"/>
<path id="Path_5" d="M43.908 30.2164C44.1309 30.5136 44.4808 30.6885 44.8523 30.6885C45.1077 30.6885 45.3562 30.6057 45.5605 30.4524L50.2818 26.9115C50.8033 26.5203 50.909 25.7805 50.5178 25.259C50.1267 24.7375 49.3869 24.6318 48.8654 25.0229L44.1441 28.5639C43.6226 28.955 43.5169 29.6949 43.908 30.2164Z" fill="black"/>
<path id="Path_6" d="M55.4752 32.8131C55.4185 32.4969 55.2354 32.2175 54.9681 32.0393C54.7008 31.8611 54.3724 31.7996 54.0588 31.8689L48.1571 33.0492C47.5053 33.1144 47.0297 33.6957 47.0948 34.3475C47.16 34.9994 47.7413 35.475 48.3932 35.4098H48.6293L54.5309 34.2295C54.8471 34.1728 55.1265 33.9897 55.3047 33.7224C55.4829 33.4551 55.5445 33.1268 55.4752 32.8131Z" fill="black"/>
<path id="Shape_5" fill-rule="evenodd" clip-rule="evenodd" d="M15.3443 33.0492H1.18033C0.528451 33.0492 0 32.5207 0 31.8689V12.9836C0 12.3317 0.528451 11.8033 1.18033 11.8033H15.3443C15.9961 11.8033 16.5246 12.3317 16.5246 12.9836V31.8689C16.5246 32.5207 15.9961 33.0492 15.3443 33.0492ZM14.1639 14.1639H2.36066V30.6885H14.1639V14.1639Z" fill="black"/>
<path id="Path_7" d="M10.623 16.5246H8.26236C7.61048 16.5246 7.08203 17.053 7.08203 17.7049C7.08203 18.3568 7.61048 18.8853 8.26236 18.8853H10.623C11.2749 18.8853 11.8033 18.3568 11.8033 17.7049C11.8033 17.053 11.2749 16.5246 10.623 16.5246Z" fill="black"/>
<path id="Path_8" d="M10.6228 21.2459H5.90152C5.24964 21.2459 4.72119 21.7744 4.72119 22.4262C4.72119 23.0781 5.24964 23.6066 5.90152 23.6066H10.6228C11.2747 23.6066 11.8032 23.0781 11.8032 22.4262C11.8032 21.7744 11.2747 21.2459 10.6228 21.2459Z" fill="black"/>
<path id="Path_9" d="M10.6228 25.9672H5.90152C5.24964 25.9672 4.72119 26.4957 4.72119 27.1476C4.72119 27.7994 5.24964 28.3279 5.90152 28.3279H10.6228C11.2747 28.3279 11.8032 27.7994 11.8032 27.1476C11.8032 26.4957 11.2747 25.9672 10.6228 25.9672Z" fill="black"/>
<path id="Shape_6" fill-rule="evenodd" clip-rule="evenodd" d="M40.2728 32.6951C40.0619 32.3282 39.6714 32.1017 39.2482 32.1009C38.8251 32.1 38.4336 32.325 38.2213 32.691C38.009 33.0571 38.0081 33.5086 38.219 33.8754L43.4242 42.8813L24.539 49.9633H24.4564H24.3619L21.2931 51.7338L19.2511 52.9141C18.7082 53.228 18.0627 53.3129 17.457 53.1502C16.8546 52.9874 16.3411 52.5928 16.0288 52.0525L13.6682 47.9685C13.0916 46.8593 13.4798 45.4929 14.5534 44.8525L18.6374 42.4918L21.5882 47.6026C21.7999 47.9693 22.1917 48.1945 22.6151 48.1928C23.0376 48.1945 23.4288 47.9702 23.6408 47.6047C23.8528 47.2392 23.8532 46.7882 23.6419 46.4223L20.5967 41.158L35.4098 28.9417L35.8937 29.7797C36.2197 30.3468 36.9437 30.5423 37.5108 30.2164C38.0779 29.8905 38.2735 29.1665 37.9475 28.5994L36.7672 26.5574C36.5921 26.2581 36.2943 26.0509 35.9528 25.9908C35.6094 25.9261 35.2549 26.0169 34.9849 26.2387L18.4603 39.8597L13.4321 42.7633C11.5763 43.8442 10.6839 46.0414 11.2603 48.1102L10.08 48.783C8.83622 49.4972 8.14614 50.8912 8.33231 52.3133C8.51848 53.7354 9.54411 54.9047 10.9298 55.2748C11.2302 55.3543 11.5397 55.394 11.8505 55.3928C12.4714 55.3902 13.0812 55.2276 13.621 54.9207L14.8013 54.2479C15.3683 54.8336 16.0814 55.2574 16.8669 55.4754C17.2702 55.5882 17.6874 55.6439 18.1062 55.6407C18.9359 55.6426 19.7509 55.4225 20.4669 55.0033L21.4937 54.4131L23.8544 58.5089C24.8312 60.1976 26.9899 60.7782 28.6819 59.8072C29.4963 59.338 30.0906 58.5644 30.3342 57.6567C30.5777 56.749 30.4504 55.7817 29.9803 54.9679L27.8321 51.2262L45.537 44.581C45.862 44.4588 46.1167 44.1998 46.2334 43.8728C46.3497 43.5498 46.3195 43.1921 46.1508 42.8931L40.2728 32.6951ZM12.3934 52.8669C12.1219 53.0238 11.7992 53.0663 11.4964 52.9849C11.194 52.9064 10.935 52.7111 10.7764 52.442C10.6194 52.1705 10.577 51.8478 10.6583 51.5449C10.7397 51.2405 10.9395 50.9813 11.2131 50.8249L12.24 50.2348L13.4203 52.2767L12.3934 52.8669ZM28.0446 57.0689C28.1259 56.766 28.0835 56.4433 27.9265 56.1718L25.5777 52.1351H25.4833L23.5239 53.2564L25.8846 57.3521C26.2127 57.9099 26.9287 58.0994 27.4898 57.7771C27.761 57.6235 27.9604 57.3689 28.0446 57.0689Z" fill="black"/>
</g>
</svg>
