<svg width="88" height="24" viewBox="0 0 88 24" fill="none" xmlns="http://www.w3.org/2000/svg">
<g id="Group 5">
<path id="Path" fill-rule="evenodd" clip-rule="evenodd" d="M22.675 0H1.325C0.593 0 0 0.593 0 1.325V22.676C0 23.407 0.593 24 1.325 24H12.82V14.706H9.692V11.084H12.82V8.413C12.82 5.313 14.713 3.625 17.479 3.625C18.804 3.625 19.942 3.724 20.274 3.768V7.008L18.356 7.009C16.852 7.009 16.561 7.724 16.561 8.772V11.085H20.148L19.681 14.707H16.561V24H22.677C23.407 24 24 23.407 24 22.675V1.325C24 0.593 23.407 0 22.675 0Z" fill="white"/>
<path id="Path_2" fill-rule="evenodd" clip-rule="evenodd" d="M88 4.55705C87.117 4.94905 86.168 5.21305 85.172 5.33205C86.189 4.72305 86.97 3.75805 87.337 2.60805C86.386 3.17205 85.332 3.58205 84.21 3.80305C83.313 2.84605 82.032 2.24805 80.616 2.24805C77.437 2.24805 75.101 5.21405 75.819 8.29305C71.728 8.08805 68.1 6.12805 65.671 3.14905C64.381 5.36205 65.002 8.25705 67.194 9.72305C66.388 9.69705 65.628 9.47605 64.965 9.10705C64.911 11.388 66.546 13.522 68.914 13.997C68.221 14.185 67.462 14.229 66.69 14.081C67.316 16.037 69.134 17.46 71.29 17.5C69.22 19.123 66.612 19.848 64 19.54C66.179 20.937 68.768 21.752 71.548 21.752C80.69 21.752 85.855 14.031 85.543 7.10605C86.505 6.41105 87.34 5.54405 88 4.55705Z" fill="white"/>
</g>
</svg>
